<svg xmlns="http://www.w3.org/2000/svg" xmlns:xlink="http://www.w3.org/1999/xlink" width="50" zoomAndPan="magnify" viewBox="0 0 37.5 37.499999" height="50" preserveAspectRatio="xMidYMid meet" version="1.0"><defs><clipPath id="116eeaa52d"><path d="M 1.007812 1.203125 L 20.992188 1.203125 L 20.992188 21.925781 L 1.007812 21.925781 Z M 1.007812 1.203125 " clip-rule="nonzero"/></clipPath><clipPath id="3d18c73ac6"><path d="M 17 27 L 26 27 L 26 36 L 17 36 Z M 17 27 " clip-rule="nonzero"/></clipPath><clipPath id="07ed41be8e"><path d="M 9.078125 31.167969 L 18.148438 10.089844 L 37.863281 18.574219 L 28.792969 39.648438 Z M 9.078125 31.167969 " clip-rule="nonzero"/></clipPath><clipPath id="72a775a36a"><path d="M 9.078125 31.167969 L 18.148438 10.089844 L 37.863281 18.574219 L 28.792969 39.648438 Z M 9.078125 31.167969 " clip-rule="nonzero"/></clipPath><clipPath id="6904181850"><path d="M 9.078125 31.167969 L 18.148438 10.089844 L 37.863281 18.574219 L 28.792969 39.648438 Z M 9.078125 31.167969 " clip-rule="nonzero"/></clipPath><clipPath id="f662e06405"><path d="M 21 14 L 31 14 L 31 23 L 21 23 Z M 21 14 " clip-rule="nonzero"/></clipPath><clipPath id="a8b3226175"><path d="M 9.078125 31.167969 L 18.148438 10.089844 L 37.863281 18.574219 L 28.792969 39.648438 Z M 9.078125 31.167969 " clip-rule="nonzero"/></clipPath><clipPath id="ad989655c1"><path d="M 9.078125 31.167969 L 18.148438 10.089844 L 37.863281 18.574219 L 28.792969 39.648438 Z M 9.078125 31.167969 " clip-rule="nonzero"/></clipPath><clipPath id="610d450e2e"><path d="M 9.078125 31.167969 L 18.148438 10.089844 L 37.863281 18.574219 L 28.792969 39.648438 Z M 9.078125 31.167969 " clip-rule="nonzero"/></clipPath><clipPath id="e562861e02"><path d="M 15 16 L 32 16 L 32 35 L 15 35 Z M 15 16 " clip-rule="nonzero"/></clipPath><clipPath id="e819816010"><path d="M 9.078125 31.167969 L 18.148438 10.089844 L 37.863281 18.574219 L 28.792969 39.648438 Z M 9.078125 31.167969 " clip-rule="nonzero"/></clipPath><clipPath id="4b698b0d47"><path d="M 9.078125 31.167969 L 18.148438 10.089844 L 37.863281 18.574219 L 28.792969 39.648438 Z M 9.078125 31.167969 " clip-rule="nonzero"/></clipPath><clipPath id="a836d3d3c3"><path d="M 9.078125 31.167969 L 18.148438 10.089844 L 37.863281 18.574219 L 28.792969 39.648438 Z M 9.078125 31.167969 " clip-rule="nonzero"/></clipPath><clipPath id="c37516c9d8"><path d="M 1.835938 2.535156 L 20.339844 2.535156 L 20.339844 21.039062 L 1.835938 21.039062 Z M 1.835938 2.535156 " clip-rule="nonzero"/></clipPath></defs><g clip-path="url(#116eeaa52d)"><path fill="#000000" d="M 13.582031 10.179688 C 14.292969 9.636719 15.046875 9.488281 15.882812 9.863281 C 15.949219 9.808594 16.015625 9.753906 16.082031 9.699219 C 16.628906 9.25 17.519531 9.113281 18.164062 9.523438 C 18.40625 9.679688 18.609375 9.851562 18.78125 10.085938 C 19.53125 11.113281 19.996094 12.289062 20.402344 13.488281 C 20.609375 14.097656 20.753906 14.722656 20.839844 15.367188 C 20.984375 16.480469 20.757812 17.496094 20.160156 18.433594 C 19.578125 19.347656 18.824219 20.101562 18 20.78125 C 17.808594 20.941406 17.617188 21.109375 17.410156 21.238281 C 16.609375 21.734375 15.734375 21.929688 14.804688 21.878906 C 13.636719 21.820312 12.589844 21.34375 11.578125 20.792969 C 11.148438 20.554688 10.742188 20.257812 10.351562 19.949219 C 9.613281 19.363281 8.851562 18.828125 7.957031 18.511719 C 7.496094 18.347656 7.164062 18.011719 6.894531 17.597656 C 6.378906 16.804688 6.691406 16.011719 7.121094 15.578125 C 7.695312 14.996094 8.378906 14.761719 9.179688 14.960938 C 9.253906 14.976562 9.328125 14.992188 9.453125 15.015625 C 9.394531 14.90625 9.359375 14.832031 9.316406 14.761719 C 8.554688 13.417969 7.789062 12.074219 7.023438 10.734375 C 6.773438 10.296875 6.527344 9.855469 6.261719 9.429688 C 5.921875 8.875 5.921875 8.28125 6.285156 7.742188 C 6.84375 6.90625 8.027344 6.554688 8.984375 6.953125 C 9.105469 7.003906 9.214844 7.128906 9.289062 7.25 C 9.882812 8.199219 10.464844 9.160156 11.046875 10.113281 C 11.09375 10.191406 11.148438 10.261719 11.21875 10.363281 C 11.96875 9.882812 12.742188 9.6875 13.582031 10.179688 Z M 4.476562 9.875 C 4.382812 9.898438 4.289062 9.945312 4.199219 9.992188 C 3.457031 10.394531 2.71875 10.792969 1.976562 11.195312 C 1.898438 11.242188 1.820312 11.285156 1.753906 11.34375 C 1.632812 11.449219 1.601562 11.621094 1.675781 11.75 C 1.757812 11.882812 1.882812 11.925781 2.023438 11.894531 C 2.109375 11.871094 2.191406 11.832031 2.269531 11.789062 C 2.921875 11.4375 3.574219 11.085938 4.226562 10.730469 C 4.375 10.652344 4.53125 10.582031 4.664062 10.480469 C 4.753906 10.410156 4.808594 10.296875 4.84375 10.242188 C 4.839844 9.972656 4.675781 9.832031 4.476562 9.875 Z M 8.195312 2.984375 C 8.195312 2.664062 8.195312 2.339844 8.195312 2.019531 C 8.195312 1.84375 8.199219 1.671875 8.179688 1.5 C 8.164062 1.316406 8.027344 1.199219 7.867188 1.207031 C 7.722656 1.210938 7.605469 1.320312 7.574219 1.488281 C 7.566406 1.542969 7.566406 1.601562 7.566406 1.660156 C 7.582031 2.523438 7.59375 3.386719 7.609375 4.25 C 7.613281 4.351562 7.621094 4.457031 7.644531 4.558594 C 7.675781 4.691406 7.769531 4.773438 7.90625 4.78125 C 8.046875 4.792969 8.152344 4.726562 8.203125 4.601562 C 8.238281 4.507812 8.246094 4.398438 8.25 4.296875 C 8.253906 3.859375 8.25 3.421875 8.25 2.984375 C 8.234375 2.984375 8.214844 2.984375 8.199219 2.984375 Z M 5.230469 15.042969 C 5.371094 15.089844 5.5 15.058594 5.589844 14.933594 C 5.636719 14.871094 5.671875 14.796875 5.699219 14.722656 C 5.785156 14.507812 5.867188 14.292969 5.945312 14.078125 C 6.183594 13.445312 6.425781 12.8125 6.652344 12.175781 C 6.722656 11.976562 6.648438 11.800781 6.496094 11.734375 C 6.328125 11.660156 6.152344 11.738281 6.054688 11.933594 C 6.035156 11.976562 6.027344 12.019531 6.007812 12.0625 C 5.714844 12.847656 5.421875 13.632812 5.125 14.417969 C 5.089844 14.511719 5.058594 14.613281 5.035156 14.6875 C 5.042969 14.859375 5.082031 14.992188 5.230469 15.042969 Z M 10.648438 5.515625 C 11.25 4.890625 11.84375 4.265625 12.4375 3.636719 C 12.648438 3.414062 12.683594 3.207031 12.542969 3.0625 C 12.398438 2.917969 12.191406 2.953125 11.984375 3.167969 C 11.386719 3.792969 10.789062 4.417969 10.195312 5.046875 C 10.128906 5.121094 10.058594 5.203125 10.019531 5.296875 C 9.929688 5.511719 10.082031 5.722656 10.382812 5.714844 C 10.441406 5.671875 10.558594 5.609375 10.648438 5.511719 Z M 4.371094 7.703125 C 4.40625 7.515625 4.304688 7.371094 4.085938 7.300781 C 4.042969 7.285156 4 7.285156 3.953125 7.277344 C 3.167969 7.109375 2.378906 6.945312 1.59375 6.78125 C 1.507812 6.765625 1.417969 6.742188 1.328125 6.746094 C 1.179688 6.753906 1.074219 6.832031 1.046875 6.992188 C 1.019531 7.140625 1.066406 7.269531 1.203125 7.339844 C 1.292969 7.386719 1.390625 7.410156 1.488281 7.429688 C 1.902344 7.523438 2.316406 7.613281 2.734375 7.699219 C 3.148438 7.785156 3.566406 7.867188 3.9375 7.945312 C 4.207031 7.957031 4.335938 7.875 4.371094 7.703125 Z M 3.492188 3.375 C 3.992188 3.992188 4.496094 4.609375 5.003906 5.21875 C 5.054688 5.28125 5.105469 5.34375 5.171875 5.390625 C 5.300781 5.484375 5.46875 5.476562 5.570312 5.375 C 5.679688 5.265625 5.695312 5.132812 5.628906 4.996094 C 5.589844 4.914062 5.535156 4.839844 5.476562 4.769531 C 4.980469 4.164062 4.484375 3.558594 3.988281 2.953125 C 3.921875 2.875 3.851562 2.792969 3.765625 2.746094 C 3.546875 2.621094 3.316406 2.765625 3.316406 3.085938 C 3.355469 3.148438 3.410156 3.273438 3.492188 3.375 Z M 11.988281 8.050781 C 12.78125 7.910156 13.574219 7.773438 14.363281 7.628906 C 14.453125 7.613281 14.554688 7.59375 14.609375 7.53125 C 14.679688 7.457031 14.75 7.335938 14.738281 7.242188 C 14.730469 7.148438 14.632812 7.046875 14.550781 6.992188 C 14.484375 6.949219 14.378906 6.960938 14.292969 6.972656 C 14.082031 7 13.871094 7.039062 13.664062 7.078125 C 13.039062 7.191406 12.410156 7.296875 11.785156 7.421875 C 11.554688 7.464844 11.449219 7.617188 11.476562 7.796875 C 11.503906 7.964844 11.640625 8.058594 11.871094 8.058594 C 11.898438 8.054688 11.945312 8.054688 11.988281 8.046875 Z M 11.988281 8.050781 " fill-opacity="1" fill-rule="nonzero"/></g><g clip-path="url(#3d18c73ac6)"><g clip-path="url(#07ed41be8e)"><g clip-path="url(#72a775a36a)"><g clip-path="url(#6904181850)"><path fill="#000000" d="M 18.988281 31.003906 C 18.566406 30.03125 18.023438 29.125 17.589844 28.164062 C 17.429688 27.804688 16.925781 28.019531 17.03125 28.386719 C 17.324219 29.402344 17.5 30.453125 17.808594 31.472656 C 18.121094 32.503906 18.570312 33.585938 18.722656 34.65625 C 18.820312 35.324219 19.59375 35.660156 20.144531 35.265625 C 21.710938 34.148438 23.382812 33.214844 25.171875 32.496094 C 26.398438 32 25.613281 30.058594 24.40625 30.589844 C 22.804688 31.300781 21.292969 32.164062 19.894531 33.199219 C 19.558594 32.480469 19.292969 31.707031 18.988281 31.003906 Z M 18.988281 31.003906 " fill-opacity="1" fill-rule="nonzero"/></g></g></g></g><g clip-path="url(#f662e06405)"><g clip-path="url(#a8b3226175)"><g clip-path="url(#ad989655c1)"><g clip-path="url(#610d450e2e)"><path fill="#000000" d="M 30.175781 20.863281 C 29.46875 19.066406 29 17.214844 28.734375 15.304688 C 28.640625 14.636719 27.863281 14.304688 27.3125 14.691406 C 26.429688 15.320312 25.335938 15.734375 24.371094 16.21875 C 23.417969 16.695312 22.535156 17.289062 21.59375 17.777344 C 21.257812 17.949219 21.445312 18.464844 21.820312 18.332031 C 22.816406 17.988281 23.847656 17.757812 24.839844 17.394531 C 25.5625 17.132812 26.308594 16.792969 27.058594 16.542969 C 27.269531 18.273438 27.679688 19.964844 28.269531 21.617188 C 28.710938 22.859375 30.664062 22.09375 30.175781 20.863281 Z M 30.175781 20.863281 " fill-opacity="1" fill-rule="nonzero"/></g></g></g></g><g clip-path="url(#e562861e02)"><g clip-path="url(#e819816010)"><g clip-path="url(#4b698b0d47)"><g clip-path="url(#a836d3d3c3)"><path fill="#000000" d="M 30.613281 32.03125 C 30.578125 32.007812 27.21875 28.402344 26.027344 27.117188 C 23.332031 24.21875 20.636719 21.320312 17.941406 18.421875 C 17.320312 17.75 16.710938 17.089844 16.011719 16.5 C 15.707031 16.238281 15.316406 16.652344 15.523438 16.964844 C 16.871094 18.996094 18.640625 20.792969 20.222656 22.644531 C 22.785156 25.652344 25.355469 28.652344 27.933594 31.644531 C 28.359375 32.136719 29.488281 33.523438 29.679688 33.671875 C 30.011719 33.925781 30.386719 34.34375 30.945312 33.835938 C 30.945312 33.835938 30.949219 33.839844 30.949219 33.835938 C 31.460938 33.429688 31.285156 32.554688 30.613281 32.03125 Z M 30.613281 32.03125 " fill-opacity="1" fill-rule="nonzero"/></g></g></g></g><g clip-path="url(#c37516c9d8)"><path fill="#ce8157" d="M 13.527344 10.636719 C 14.191406 10.144531 14.890625 10.011719 15.667969 10.351562 C 15.730469 10.300781 15.792969 10.253906 15.855469 10.203125 C 16.363281 9.796875 17.195312 9.671875 17.789062 10.042969 C 18.015625 10.183594 18.207031 10.339844 18.367188 10.550781 C 19.0625 11.480469 19.496094 12.539062 19.871094 13.621094 C 20.066406 14.167969 20.199219 14.734375 20.277344 15.316406 C 20.414062 16.320312 20.203125 17.238281 19.648438 18.082031 C 19.105469 18.910156 18.402344 19.589844 17.636719 20.203125 C 17.460938 20.347656 17.285156 20.496094 17.089844 20.613281 C 16.34375 21.0625 15.53125 21.238281 14.667969 21.195312 C 13.578125 21.136719 12.609375 20.710938 11.667969 20.210938 C 11.265625 20 10.886719 19.730469 10.527344 19.453125 C 9.839844 18.921875 9.132812 18.4375 8.300781 18.152344 C 7.871094 18.007812 7.5625 17.703125 7.3125 17.328125 C 6.832031 16.613281 7.121094 15.894531 7.519531 15.503906 C 8.058594 14.980469 8.691406 14.769531 9.4375 14.949219 C 9.503906 14.964844 9.574219 14.976562 9.691406 15 C 9.636719 14.902344 9.601562 14.832031 9.566406 14.769531 C 8.855469 13.558594 8.144531 12.34375 7.433594 11.136719 C 7.199219 10.742188 6.96875 10.34375 6.722656 9.957031 C 6.40625 9.460938 6.40625 8.921875 6.742188 8.4375 C 7.265625 7.679688 8.363281 7.363281 9.253906 7.722656 C 9.367188 7.769531 9.46875 7.882812 9.539062 7.992188 C 10.089844 8.851562 10.628906 9.714844 11.175781 10.578125 C 11.21875 10.644531 11.269531 10.710938 11.332031 10.800781 C 12.03125 10.367188 12.75 10.191406 13.527344 10.636719 Z M 5.0625 10.363281 C 4.972656 10.378906 4.886719 10.425781 4.804688 10.46875 C 4.117188 10.828125 3.425781 11.191406 2.738281 11.554688 C 2.664062 11.59375 2.589844 11.632812 2.53125 11.683594 C 2.417969 11.78125 2.390625 11.9375 2.460938 12.050781 C 2.53125 12.171875 2.648438 12.210938 2.78125 12.183594 C 2.859375 12.164062 2.9375 12.125 3.011719 12.085938 C 3.617188 11.769531 4.222656 11.453125 4.828125 11.132812 C 4.96875 11.058594 5.113281 11 5.238281 10.90625 C 5.320312 10.84375 5.371094 10.738281 5.40625 10.695312 C 5.398438 10.449219 5.25 10.324219 5.0625 10.359375 Z M 8.519531 4.144531 C 8.519531 3.851562 8.523438 3.5625 8.519531 3.269531 C 8.519531 3.113281 8.523438 2.957031 8.507812 2.804688 C 8.492188 2.636719 8.363281 2.535156 8.21875 2.539062 C 8.082031 2.542969 7.972656 2.640625 7.945312 2.792969 C 7.933594 2.84375 7.933594 2.894531 7.9375 2.945312 C 7.949219 3.726562 7.960938 4.503906 7.976562 5.285156 C 7.980469 5.378906 7.984375 5.472656 8.007812 5.5625 C 8.039062 5.683594 8.125 5.753906 8.253906 5.765625 C 8.382812 5.777344 8.480469 5.714844 8.527344 5.601562 C 8.558594 5.515625 8.570312 5.417969 8.570312 5.328125 C 8.574219 4.933594 8.574219 4.539062 8.574219 4.144531 C 8.558594 4.144531 8.539062 4.144531 8.523438 4.144531 Z M 5.765625 15.023438 C 5.894531 15.066406 6.015625 15.039062 6.101562 14.925781 C 6.140625 14.871094 6.171875 14.800781 6.199219 14.734375 C 6.277344 14.542969 6.355469 14.347656 6.429688 14.152344 C 6.648438 13.582031 6.875 13.007812 7.085938 12.433594 C 7.152344 12.257812 7.082031 12.097656 6.941406 12.039062 C 6.785156 11.972656 6.621094 12.042969 6.53125 12.21875 C 6.511719 12.253906 6.503906 12.296875 6.488281 12.335938 C 6.214844 13.042969 5.941406 13.75 5.667969 14.457031 C 5.632812 14.546875 5.605469 14.636719 5.582031 14.703125 C 5.589844 14.859375 5.625 14.976562 5.765625 15.023438 Z M 10.804688 6.425781 C 11.359375 5.863281 11.914062 5.296875 12.46875 4.730469 C 12.664062 4.53125 12.695312 4.34375 12.5625 4.214844 C 12.429688 4.082031 12.238281 4.113281 12.046875 4.308594 C 11.488281 4.871094 10.933594 5.4375 10.382812 6.003906 C 10.316406 6.070312 10.253906 6.144531 10.21875 6.226562 C 10.132812 6.425781 10.277344 6.613281 10.554688 6.605469 C 10.609375 6.566406 10.71875 6.511719 10.804688 6.425781 Z M 4.964844 8.398438 C 4.996094 8.234375 4.902344 8.101562 4.699219 8.035156 C 4.660156 8.023438 4.617188 8.023438 4.578125 8.015625 C 3.84375 7.867188 3.113281 7.71875 2.382812 7.570312 C 2.300781 7.554688 2.21875 7.535156 2.136719 7.535156 C 2 7.542969 1.898438 7.617188 1.875 7.757812 C 1.847656 7.894531 1.894531 8.011719 2.019531 8.074219 C 2.101562 8.113281 2.195312 8.136719 2.285156 8.15625 C 2.667969 8.238281 3.054688 8.316406 3.441406 8.398438 C 3.828125 8.476562 4.214844 8.550781 4.5625 8.617188 C 4.8125 8.628906 4.929688 8.558594 4.964844 8.402344 Z M 4.148438 4.496094 C 4.613281 5.054688 5.082031 5.609375 5.554688 6.160156 C 5.601562 6.214844 5.648438 6.269531 5.707031 6.3125 C 5.832031 6.398438 5.984375 6.394531 6.082031 6.300781 C 6.179688 6.199219 6.195312 6.078125 6.132812 5.957031 C 6.097656 5.882812 6.046875 5.816406 5.992188 5.753906 C 5.53125 5.207031 5.070312 4.660156 4.605469 4.113281 C 4.546875 4.042969 4.480469 3.96875 4.402344 3.925781 C 4.199219 3.816406 3.984375 3.945312 3.984375 4.234375 C 4.019531 4.292969 4.070312 4.40625 4.148438 4.496094 Z M 12.046875 8.714844 C 12.785156 8.589844 13.523438 8.464844 14.257812 8.335938 C 14.339844 8.320312 14.4375 8.300781 14.488281 8.246094 C 14.550781 8.179688 14.617188 8.066406 14.605469 7.984375 C 14.597656 7.902344 14.507812 7.808594 14.429688 7.757812 C 14.371094 7.71875 14.269531 7.730469 14.191406 7.738281 C 13.996094 7.765625 13.800781 7.804688 13.605469 7.835938 C 13.023438 7.941406 12.4375 8.035156 11.859375 8.144531 C 11.644531 8.1875 11.546875 8.324219 11.574219 8.488281 C 11.597656 8.636719 11.726562 8.722656 11.9375 8.722656 C 11.964844 8.71875 12.007812 8.71875 12.046875 8.710938 Z M 12.046875 8.714844 " fill-opacity="1" fill-rule="nonzero"/></g></svg>