<svg xmlns="http://www.w3.org/2000/svg" xmlns:xlink="http://www.w3.org/1999/xlink" width="50" zoomAndPan="magnify" viewBox="0 0 37.5 37.499999" height="50" preserveAspectRatio="xMidYMid meet" version="1.0"><metadata><ContainsAiGeneratedContent>Yes</ContainsAiGeneratedContent></metadata><defs><clipPath id="d10fd5910f"><path d="M 1.8125 1.8125 L 35.121094 1.8125 L 35.121094 35.121094 L 1.8125 35.121094 Z M 1.8125 1.8125 " clip-rule="nonzero"/></clipPath></defs><g clip-path="url(#d10fd5910f)"><path fill="#000000" d="M 18.464844 1.8125 C 17.921875 1.8125 17.375 1.839844 16.835938 1.894531 C 16.292969 1.945312 15.753906 2.027344 15.21875 2.132812 C 14.683594 2.238281 14.152344 2.371094 13.632812 2.53125 C 13.109375 2.6875 12.597656 2.871094 12.09375 3.082031 C 11.589844 3.289062 11.097656 3.523438 10.617188 3.78125 C 10.136719 4.035156 9.667969 4.316406 9.214844 4.621094 C 8.761719 4.921875 8.324219 5.246094 7.902344 5.59375 C 7.480469 5.9375 7.078125 6.304688 6.691406 6.691406 C 6.304688 7.078125 5.9375 7.480469 5.59375 7.902344 C 5.246094 8.324219 4.921875 8.761719 4.621094 9.214844 C 4.316406 9.667969 4.035156 10.136719 3.78125 10.617188 C 3.523438 11.097656 3.289062 11.589844 3.082031 12.09375 C 2.871094 12.597656 2.6875 13.109375 2.53125 13.632812 C 2.371094 14.152344 2.238281 14.683594 2.132812 15.21875 C 2.027344 15.753906 1.945312 16.292969 1.894531 16.835938 C 1.839844 17.375 1.8125 17.921875 1.8125 18.464844 C 1.8125 19.011719 1.839844 19.554688 1.894531 20.097656 C 1.945312 20.640625 2.027344 21.179688 2.132812 21.714844 C 2.238281 22.25 2.371094 22.777344 2.53125 23.300781 C 2.6875 23.824219 2.871094 24.335938 3.082031 24.839844 C 3.289062 25.34375 3.523438 25.835938 3.78125 26.316406 C 4.035156 26.796875 4.316406 27.265625 4.621094 27.71875 C 4.921875 28.171875 5.246094 28.609375 5.59375 29.03125 C 5.9375 29.453125 6.304688 29.855469 6.691406 30.242188 C 7.078125 30.628906 7.480469 30.992188 7.902344 31.339844 C 8.324219 31.683594 8.761719 32.007812 9.214844 32.3125 C 9.667969 32.617188 10.136719 32.894531 10.617188 33.152344 C 11.097656 33.410156 11.589844 33.644531 12.09375 33.851562 C 12.597656 34.058594 13.109375 34.242188 13.632812 34.402344 C 14.152344 34.558594 14.683594 34.691406 15.21875 34.800781 C 15.753906 34.90625 16.292969 34.984375 16.835938 35.039062 C 17.375 35.09375 17.921875 35.121094 18.464844 35.121094 C 19.011719 35.121094 19.554688 35.09375 20.097656 35.039062 C 20.640625 34.984375 21.179688 34.90625 21.714844 34.800781 C 22.25 34.691406 22.777344 34.558594 23.300781 34.402344 C 23.824219 34.242188 24.335938 34.058594 24.839844 33.851562 C 25.34375 33.644531 25.835938 33.410156 26.316406 33.152344 C 26.796875 32.894531 27.265625 32.617188 27.71875 32.3125 C 28.171875 32.007812 28.609375 31.683594 29.03125 31.339844 C 29.453125 30.992188 29.855469 30.628906 30.242188 30.242188 C 30.628906 29.855469 30.992188 29.453125 31.339844 29.03125 C 31.683594 28.609375 32.007812 28.171875 32.3125 27.71875 C 32.617188 27.265625 32.894531 26.796875 33.152344 26.316406 C 33.410156 25.835938 33.644531 25.34375 33.851562 24.839844 C 34.058594 24.335938 34.242188 23.824219 34.402344 23.300781 C 34.558594 22.777344 34.691406 22.25 34.800781 21.714844 C 34.90625 21.179688 34.984375 20.640625 35.039062 20.097656 C 35.09375 19.554688 35.121094 19.011719 35.121094 18.464844 C 35.117188 17.921875 35.089844 17.378906 35.039062 16.835938 C 34.984375 16.292969 34.902344 15.753906 34.796875 15.21875 C 34.691406 14.683594 34.558594 14.15625 34.398438 13.632812 C 34.238281 13.113281 34.054688 12.601562 33.847656 12.097656 C 33.636719 11.59375 33.40625 11.101562 33.148438 10.621094 C 32.890625 10.140625 32.609375 9.671875 32.308594 9.21875 C 32.003906 8.765625 31.679688 8.328125 31.332031 7.90625 C 30.988281 7.484375 30.621094 7.082031 30.238281 6.695312 C 29.851562 6.308594 29.449219 5.945312 29.027344 5.597656 C 28.605469 5.253906 28.167969 4.929688 27.714844 4.625 C 27.261719 4.320312 26.792969 4.042969 26.3125 3.785156 C 25.832031 3.527344 25.339844 3.292969 24.835938 3.085938 C 24.332031 2.875 23.820312 2.691406 23.296875 2.535156 C 22.777344 2.375 22.25 2.242188 21.714844 2.136719 C 21.179688 2.03125 20.640625 1.949219 20.097656 1.894531 C 19.554688 1.839844 19.011719 1.8125 18.464844 1.8125 Z M 18.464844 34.242188 C 17.949219 34.242188 17.433594 34.21875 16.917969 34.167969 C 16.40625 34.117188 15.894531 34.039062 15.386719 33.941406 C 14.882812 33.839844 14.382812 33.714844 13.886719 33.5625 C 13.390625 33.414062 12.90625 33.238281 12.429688 33.042969 C 11.953125 32.84375 11.484375 32.625 11.03125 32.378906 C 10.574219 32.136719 10.132812 31.871094 9.703125 31.582031 C 9.273438 31.296875 8.855469 30.988281 8.457031 30.660156 C 8.058594 30.332031 7.675781 29.988281 7.3125 29.621094 C 6.945312 29.257812 6.597656 28.875 6.269531 28.476562 C 5.941406 28.074219 5.636719 27.660156 5.347656 27.230469 C 5.0625 26.800781 4.796875 26.359375 4.550781 25.902344 C 4.308594 25.449219 4.089844 24.980469 3.890625 24.503906 C 3.691406 24.027344 3.519531 23.539062 3.367188 23.046875 C 3.21875 22.550781 3.09375 22.050781 2.992188 21.542969 C 2.890625 21.039062 2.816406 20.527344 2.765625 20.011719 C 2.714844 19.5 2.691406 18.984375 2.691406 18.464844 C 2.691406 17.949219 2.714844 17.433594 2.765625 16.917969 C 2.816406 16.40625 2.890625 15.894531 2.992188 15.386719 C 3.09375 14.882812 3.21875 14.382812 3.367188 13.886719 C 3.519531 13.390625 3.691406 12.90625 3.890625 12.429688 C 4.089844 11.953125 4.308594 11.484375 4.550781 11.03125 C 4.796875 10.574219 5.0625 10.132812 5.347656 9.703125 C 5.636719 9.273438 5.941406 8.855469 6.269531 8.457031 C 6.597656 8.058594 6.945312 7.675781 7.3125 7.3125 C 7.675781 6.945312 8.058594 6.597656 8.457031 6.269531 C 8.855469 5.941406 9.273438 5.636719 9.703125 5.347656 C 10.132812 5.0625 10.574219 4.796875 11.03125 4.550781 C 11.484375 4.308594 11.953125 4.089844 12.429688 3.890625 C 12.90625 3.691406 13.390625 3.519531 13.886719 3.367188 C 14.382812 3.21875 14.882812 3.09375 15.386719 2.992188 C 15.894531 2.890625 16.40625 2.816406 16.917969 2.765625 C 17.433594 2.714844 17.949219 2.691406 18.464844 2.691406 C 18.984375 2.691406 19.5 2.714844 20.011719 2.765625 C 20.527344 2.816406 21.039062 2.890625 21.542969 2.992188 C 22.050781 3.09375 22.550781 3.21875 23.046875 3.367188 C 23.539062 3.519531 24.027344 3.691406 24.503906 3.890625 C 24.980469 4.089844 25.449219 4.308594 25.902344 4.550781 C 26.359375 4.796875 26.800781 5.0625 27.230469 5.347656 C 27.660156 5.636719 28.074219 5.941406 28.476562 6.269531 C 28.875 6.597656 29.257812 6.945312 29.621094 7.3125 C 29.988281 7.675781 30.332031 8.058594 30.660156 8.457031 C 30.988281 8.855469 31.296875 9.273438 31.582031 9.703125 C 31.871094 10.132812 32.136719 10.574219 32.378906 11.03125 C 32.625 11.484375 32.84375 11.953125 33.042969 12.429688 C 33.238281 12.90625 33.414062 13.390625 33.5625 13.886719 C 33.714844 14.382812 33.839844 14.882812 33.941406 15.386719 C 34.039062 15.894531 34.117188 16.40625 34.167969 16.917969 C 34.21875 17.433594 34.242188 17.949219 34.242188 18.464844 C 34.242188 18.984375 34.214844 19.5 34.164062 20.011719 C 34.113281 20.527344 34.039062 21.035156 33.9375 21.542969 C 33.835938 22.050781 33.710938 22.550781 33.558594 23.042969 C 33.410156 23.539062 33.234375 24.023438 33.039062 24.5 C 32.839844 24.976562 32.617188 25.445312 32.375 25.898438 C 32.132812 26.355469 31.867188 26.796875 31.578125 27.226562 C 31.292969 27.65625 30.984375 28.070312 30.65625 28.46875 C 30.328125 28.871094 29.980469 29.25 29.617188 29.617188 C 29.25 29.980469 28.871094 30.328125 28.46875 30.65625 C 28.070312 30.984375 27.65625 31.292969 27.226562 31.578125 C 26.796875 31.867188 26.355469 32.132812 25.898438 32.375 C 25.445312 32.617188 24.976562 32.839844 24.5 33.039062 C 24.023438 33.234375 23.539062 33.410156 23.042969 33.558594 C 22.550781 33.710938 22.050781 33.835938 21.542969 33.9375 C 21.035156 34.039062 20.527344 34.113281 20.011719 34.164062 C 19.5 34.214844 18.984375 34.242188 18.464844 34.242188 Z M 18.464844 34.242188 " fill-opacity="1" fill-rule="nonzero"/></g><path fill="#000000" d="M 24.761719 12.171875 C 24.675781 12.085938 24.574219 12.042969 24.453125 12.042969 C 24.332031 12.042969 24.230469 12.085938 24.144531 12.171875 L 18.464844 17.847656 L 12.789062 12.171875 C 12.703125 12.089844 12.601562 12.050781 12.484375 12.054688 C 12.363281 12.054688 12.265625 12.097656 12.179688 12.179688 C 12.097656 12.265625 12.054688 12.363281 12.054688 12.484375 C 12.050781 12.601562 12.089844 12.703125 12.171875 12.789062 L 17.847656 18.464844 L 12.171875 24.144531 C 12.03125 24.28125 11.996094 24.441406 12.074219 24.621094 C 12.148438 24.804688 12.285156 24.894531 12.480469 24.894531 C 12.601562 24.894531 12.703125 24.851562 12.789062 24.765625 L 18.464844 19.085938 L 24.144531 24.761719 C 24.226562 24.847656 24.332031 24.890625 24.453125 24.890625 C 24.648438 24.890625 24.78125 24.800781 24.855469 24.621094 C 24.933594 24.441406 24.898438 24.28125 24.761719 24.144531 L 19.085938 18.464844 L 24.761719 12.789062 C 24.847656 12.703125 24.890625 12.601562 24.890625 12.480469 C 24.890625 12.359375 24.847656 12.257812 24.761719 12.171875 Z M 24.761719 12.171875 " fill-opacity="1" fill-rule="nonzero"/></svg>