<svg xmlns="http://www.w3.org/2000/svg" xmlns:xlink="http://www.w3.org/1999/xlink" width="50" zoomAndPan="magnify" viewBox="0 0 37.5 37.499999" height="50" preserveAspectRatio="xMidYMid meet" version="1.0"><defs><clipPath id="c932dd638a"><path d="M 0 0 L 37.007812 0 L 37.007812 37.007812 L 0 37.007812 Z M 0 0 " clip-rule="nonzero"/></clipPath></defs><g clip-path="url(#c932dd638a)"><path fill="#ffffff" d="M 0 0 L 37.007812 0 L 37.007812 37.007812 L 0 37.007812 Z M 0 0 " fill-opacity="1" fill-rule="nonzero"/></g><path stroke-linecap="butt" transform="matrix(1.121411, 0, 0, 1.121411, 0.0000005, 0)" fill-opacity="1" fill="#ffffff" fill-rule="nonzero" stroke-linejoin="miter" d="M 1.999433 2.501033 L 9.000933 2.501033 M 12.000084 2.501033 L 12.9998 2.501033 M 14.999234 2.501033 L 15.998951 2.501033 M 16.998667 2.501033 L 17.998384 2.501033 M 21.001018 2.501033 L 23.000451 2.501033 M 24.000168 2.501033 L 31.001668 2.501033 M 1.999433 3.50075 L 2.99915 3.50075 M 8.001217 3.50075 L 9.000933 3.50075 M 12.9998 3.50075 L 13.999517 3.50075 M 14.999234 3.50075 L 19.001584 3.50075 M 22.000734 3.50075 L 23.000451 3.50075 M 24.000168 3.50075 L 24.999885 3.50075 M 29.998468 3.50075 L 31.001668 3.50075 M 1.999433 4.500467 L 2.99915 4.500467 M 3.998866 4.500467 L 7.0015 4.500467 M 8.001217 4.500467 L 9.000933 4.500467 M 10.00065 4.500467 L 11.000367 4.500467 M 14.999234 4.500467 L 15.998951 4.500467 M 20.001301 4.500467 L 22.000734 4.500467 M 24.000168 4.500467 L 24.999885 4.500467 M 25.999601 4.500467 L 28.998751 4.500467 M 29.998468 4.500467 L 31.001668 4.500467 M 1.999433 5.500184 L 2.99915 5.500184 M 3.998866 5.500184 L 7.0015 5.500184 M 8.001217 5.500184 L 9.000933 5.500184 M 10.00065 5.500184 L 12.000084 5.500184 M 12.9998 5.500184 L 14.999234 5.500184 M 15.998951 5.500184 L 16.998667 5.500184 M 19.001584 5.500184 L 20.001301 5.500184 M 24.000168 5.500184 L 24.999885 5.500184 M 25.999601 5.500184 L 28.998751 5.500184 M 29.998468 5.500184 L 31.001668 5.500184 M 1.999433 6.4999 L 2.99915 6.4999 M 3.998866 6.4999 L 7.0015 6.4999 M 8.001217 6.4999 L 9.000933 6.4999 M 10.00065 6.4999 L 11.000367 6.4999 M 12.000084 6.4999 L 14.999234 6.4999 M 17.998384 6.4999 L 19.001584 6.4999 M 21.001018 6.4999 L 23.000451 6.4999 M 24.000168 6.4999 L 24.999885 6.4999 M 25.999601 6.4999 L 28.998751 6.4999 M 29.998468 6.4999 L 31.001668 6.4999 M 1.999433 7.499617 L 2.99915 7.499617 M 8.001217 7.499617 L 9.000933 7.499617 M 10.00065 7.499617 L 12.000084 7.499617 M 13.999517 7.499617 L 14.999234 7.499617 M 16.998667 7.499617 L 21.001018 7.499617 M 22.000734 7.499617 L 23.000451 7.499617 M 24.000168 7.499617 L 24.999885 7.499617 M 29.998468 7.499617 L 31.001668 7.499617 M 1.999433 8.499334 L 9.000933 8.499334 M 10.00065 8.499334 L 11.000367 8.499334 M 12.000084 8.499334 L 12.9998 8.499334 M 13.999517 8.499334 L 14.999234 8.499334 M 15.998951 8.499334 L 16.998667 8.499334 M 17.998384 8.499334 L 19.001584 8.499334 M 20.001301 8.499334 L 21.001018 8.499334 M 22.000734 8.499334 L 23.000451 8.499334 M 24.000168 8.499334 L 31.001668 8.499334 M 10.00065 9.499051 L 14.999234 9.499051 M 15.998951 9.499051 L 19.001584 9.499051 M 22.000734 9.499051 L 23.000451 9.499051 M 1.999433 10.498767 L 2.99915 10.498767 M 3.998866 10.498767 L 9.000933 10.498767 M 11.000367 10.498767 L 12.9998 10.498767 M 16.998667 10.498767 L 20.001301 10.498767 M 24.000168 10.498767 L 28.998751 10.498767 M 2.99915 11.498484 L 3.998866 11.498484 M 4.998583 11.498484 L 5.9983 11.498484 M 12.000084 11.498484 L 16.998667 11.498484 M 17.998384 11.498484 L 19.001584 11.498484 M 21.001018 11.498484 L 23.000451 11.498484 M 24.000168 11.498484 L 31.001668 11.498484 M 1.999433 12.501684 L 4.998583 12.501684 M 8.001217 12.501684 L 9.000933 12.501684 M 10.00065 12.501684 L 12.9998 12.501684 M 13.999517 12.501684 L 17.998384 12.501684 M 23.000451 12.501684 L 24.000168 12.501684 M 25.999601 12.501684 L 26.999318 12.501684 M 2.99915 13.501401 L 4.998583 13.501401 M 5.9983 13.501401 L 7.0015 13.501401 M 9.000933 13.501401 L 11.000367 13.501401 M 12.000084 13.501401 L 15.998951 13.501401 M 17.998384 13.501401 L 19.001584 13.501401 M 20.001301 13.501401 L 24.000168 13.501401 M 25.999601 13.501401 L 27.999035 13.501401 M 2.99915 14.501118 L 3.998866 14.501118 M 4.998583 14.501118 L 5.9983 14.501118 M 8.001217 14.501118 L 12.000084 14.501118 M 12.9998 14.501118 L 13.999517 14.501118 M 15.998951 14.501118 L 16.998667 14.501118 M 19.001584 14.501118 L 20.001301 14.501118 M 25.999601 14.501118 L 31.001668 14.501118 M 1.999433 15.500834 L 3.998866 15.500834 M 5.9983 15.500834 L 8.001217 15.500834 M 9.000933 15.500834 L 10.00065 15.500834 M 11.000367 15.500834 L 14.999234 15.500834 M 21.001018 15.500834 L 27.999035 15.500834 M 28.998751 15.500834 L 31.001668 15.500834 M 1.999433 16.500551 L 2.99915 16.500551 M 3.998866 16.500551 L 7.0015 16.500551 M 8.001217 16.500551 L 9.000933 16.500551 M 10.00065 16.500551 L 11.000367 16.500551 M 12.9998 16.500551 L 13.999517 16.500551 M 16.998667 16.500551 L 19.001584 16.500551 M 24.000168 16.500551 L 25.999601 16.500551 M 1.999433 17.500268 L 2.99915 17.500268 M 3.998866 17.500268 L 7.0015 17.500268 M 9.000933 17.500268 L 10.00065 17.500268 M 15.998951 17.500268 L 16.998667 17.500268 M 17.998384 17.500268 L 19.001584 17.500268 M 21.001018 17.500268 L 22.000734 17.500268 M 23.000451 17.500268 L 24.000168 17.500268 M 24.999885 17.500268 L 25.999601 17.500268 M 26.999318 17.500268 L 27.999035 17.500268 M 2.99915 18.499985 L 3.998866 18.499985 M 4.998583 18.499985 L 5.9983 18.499985 M 8.001217 18.499985 L 11.000367 18.499985 M 12.000084 18.499985 L 12.9998 18.499985 M 13.999517 18.499985 L 14.999234 18.499985 M 19.001584 18.499985 L 20.001301 18.499985 M 22.000734 18.499985 L 23.000451 18.499985 M 27.999035 18.499985 L 29.998468 18.499985 M 1.999433 19.499701 L 2.99915 19.499701 M 5.9983 19.499701 L 7.0015 19.499701 M 13.999517 19.499701 L 16.998667 19.499701 M 17.998384 19.499701 L 19.001584 19.499701 M 20.001301 19.499701 L 31.001668 19.499701 M 1.999433 20.499418 L 2.99915 20.499418 M 5.9983 20.499418 L 7.0015 20.499418 M 8.001217 20.499418 L 11.000367 20.499418 M 12.000084 20.499418 L 12.9998 20.499418 M 14.999234 20.499418 L 19.001584 20.499418 M 22.000734 20.499418 L 23.000451 20.499418 M 24.000168 20.499418 L 24.999885 20.499418 M 26.999318 20.499418 L 28.998751 20.499418 M 1.999433 21.499135 L 2.99915 21.499135 M 5.9983 21.499135 L 8.001217 21.499135 M 9.000933 21.499135 L 12.000084 21.499135 M 12.9998 21.499135 L 15.998951 21.499135 M 20.001301 21.499135 L 21.001018 21.499135 M 22.000734 21.499135 L 23.000451 21.499135 M 24.000168 21.499135 L 26.999318 21.499135 M 1.999433 22.498851 L 2.99915 22.498851 M 3.998866 22.498851 L 4.998583 22.498851 M 5.9983 22.498851 L 7.0015 22.498851 M 8.001217 22.498851 L 9.000933 22.498851 M 10.00065 22.498851 L 11.000367 22.498851 M 13.999517 22.498851 L 14.999234 22.498851 M 15.998951 22.498851 L 17.998384 22.498851 M 19.001584 22.498851 L 20.001301 22.498851 M 22.000734 22.498851 L 28.998751 22.498851 M 29.998468 22.498851 L 31.001668 22.498851 M 10.00065 23.498568 L 12.000084 23.498568 M 12.9998 23.498568 L 14.999234 23.498568 M 17.998384 23.498568 L 21.001018 23.498568 M 22.000734 23.498568 L 23.000451 23.498568 M 25.999601 23.498568 L 26.999318 23.498568 M 27.999035 23.498568 L 31.001668 23.498568 M 1.999433 24.498285 L 9.000933 24.498285 M 11.000367 24.498285 L 12.000084 24.498285 M 12.9998 24.498285 L 14.999234 24.498285 M 16.998667 24.498285 L 17.998384 24.498285 M 20.001301 24.498285 L 23.000451 24.498285 M 24.000168 24.498285 L 24.999885 24.498285 M 25.999601 24.498285 L 26.999318 24.498285 M 27.999035 24.498285 L 28.998751 24.498285 M 1.999433 25.501485 L 2.99915 25.501485 M 8.001217 25.501485 L 9.000933 25.501485 M 10.00065 25.501485 L 12.000084 25.501485 M 12.9998 25.501485 L 14.999234 25.501485 M 15.998951 25.501485 L 16.998667 25.501485 M 17.998384 25.501485 L 19.001584 25.501485 M 21.001018 25.501485 L 23.000451 25.501485 M 25.999601 25.501485 L 27.999035 25.501485 M 28.998751 25.501485 L 29.998468 25.501485 M 1.999433 26.501202 L 2.99915 26.501202 M 3.998866 26.501202 L 7.0015 26.501202 M 8.001217 26.501202 L 9.000933 26.501202 M 10.00065 26.501202 L 11.000367 26.501202 M 12.000084 26.501202 L 13.999517 26.501202 M 19.001584 26.501202 L 20.001301 26.501202 M 22.000734 26.501202 L 26.999318 26.501202 M 27.999035 26.501202 L 28.998751 26.501202 M 1.999433 27.500918 L 2.99915 27.500918 M 3.998866 27.500918 L 7.0015 27.500918 M 8.001217 27.500918 L 9.000933 27.500918 M 10.00065 27.500918 L 11.000367 27.500918 M 12.9998 27.500918 L 16.998667 27.500918 M 19.001584 27.500918 L 21.001018 27.500918 M 27.999035 27.500918 L 31.001668 27.500918 M 1.999433 28.500635 L 2.99915 28.500635 M 3.998866 28.500635 L 7.0015 28.500635 M 8.001217 28.500635 L 9.000933 28.500635 M 10.00065 28.500635 L 12.9998 28.500635 M 13.999517 28.500635 L 14.999234 28.500635 M 16.998667 28.500635 L 20.001301 28.500635 M 24.000168 28.500635 L 27.999035 28.500635 M 28.998751 28.500635 L 29.998468 28.500635 M 1.999433 29.500352 L 2.99915 29.500352 M 8.001217 29.500352 L 9.000933 29.500352 M 11.000367 29.500352 L 12.9998 29.500352 M 15.998951 29.500352 L 16.998667 29.500352 M 21.001018 29.500352 L 23.000451 29.500352 M 26.999318 29.500352 L 27.999035 29.500352 M 28.998751 29.500352 L 29.998468 29.500352 M 1.999433 30.500069 L 9.000933 30.500069 M 10.00065 30.500069 L 11.000367 30.500069 M 14.999234 30.500069 L 15.998951 30.500069 M 16.998667 30.500069 L 20.001301 30.500069 M 21.001018 30.500069 L 22.000734 30.500069 M 23.000451 30.500069 L 24.000168 30.500069 M 24.999885 30.500069 L 25.999601 30.500069 M 27.999035 30.500069 L 28.998751 30.500069 " stroke="#000000" stroke-width="1" stroke-opacity="1" stroke-miterlimit="4"/></svg>