<svg xmlns="http://www.w3.org/2000/svg" xmlns:xlink="http://www.w3.org/1999/xlink" width="50" zoomAndPan="magnify" viewBox="0 0 37.5 37.499999" height="50" preserveAspectRatio="xMidYMid meet" version="1.0"><defs><clipPath id="d329893ace"><path d="M 3 2 L 33.890625 2 L 33.890625 35 L 3 35 Z M 3 2 " clip-rule="nonzero"/></clipPath><clipPath id="0731532e87"><path d="M 2.808594 1.867188 L 33.890625 1.867188 L 33.890625 35.128906 L 2.808594 35.128906 Z M 2.808594 1.867188 " clip-rule="nonzero"/></clipPath></defs><g clip-path="url(#d329893ace)"><path fill="#ffffff" d="M 23.085938 12.699219 C 22.617188 12.558594 21.820312 12.371094 20.746094 12.371094 C 16.628906 12.371094 13.308594 16.253906 13.308594 20.789062 C 13.308594 22.847656 14.339844 24.34375 16.394531 24.34375 C 19.109375 24.34375 21.589844 20.882812 22.101562 17.984375 Z M 25.65625 32.902344 C 23.085938 34.257812 20.464844 34.773438 17.332031 34.773438 C 9.660156 34.773438 3.160156 29.160156 3.160156 20.183594 C 3.160156 10.546875 9.847656 2.222656 20.230469 2.222656 C 28.371094 2.222656 33.839844 7.929688 33.839844 15.738281 C 33.839844 22.753906 29.914062 26.871094 25.515625 26.871094 C 23.644531 26.871094 21.914062 25.605469 22.054688 22.753906 L 21.867188 22.753906 C 20.230469 25.515625 18.082031 26.871094 15.273438 26.871094 C 12.5625 26.871094 10.222656 24.671875 10.222656 20.976562 C 10.222656 15.175781 14.804688 9.890625 21.308594 9.890625 C 23.320312 9.890625 25.097656 10.3125 26.3125 10.875 L 24.722656 19.339844 C 24.019531 22.894531 24.582031 24.53125 26.125 24.578125 C 28.511719 24.625 31.175781 21.445312 31.175781 16.019531 C 31.175781 9.238281 27.105469 4.375 19.859375 4.375 C 12.234375 4.375 5.828125 10.40625 5.828125 19.902344 C 5.828125 27.710938 10.925781 32.53125 17.847656 32.53125 C 20.511719 32.53125 22.992188 31.96875 24.910156 30.890625 L 25.65625 32.902344 " fill-opacity="1" fill-rule="nonzero"/></g><g clip-path="url(#0731532e87)"><path fill="#ffffff" d="M 20.746094 12.726562 C 16.90625 12.726562 13.664062 16.417969 13.664062 20.789062 C 13.664062 21.753906 13.929688 23.992188 16.394531 23.992188 C 18.847656 23.992188 21.246094 20.785156 21.753906 17.921875 L 22.675781 12.953125 C 22.074219 12.800781 21.425781 12.726562 20.746094 12.726562 Z M 16.394531 24.699219 C 14.273438 24.699219 12.957031 23.199219 12.957031 20.789062 C 12.957031 18.496094 13.757812 16.316406 15.21875 14.644531 C 16.699219 12.953125 18.664062 12.019531 20.746094 12.019531 C 21.609375 12.019531 22.429688 12.132812 23.1875 12.359375 L 23.492188 12.453125 L 22.449219 18.046875 C 22.179688 19.5625 21.394531 21.21875 20.34375 22.476562 C 19.152344 23.910156 17.75 24.699219 16.394531 24.699219 Z M 20.230469 2.574219 C 10.703125 2.574219 3.515625 10.144531 3.515625 20.183594 C 3.515625 28.433594 9.324219 34.421875 17.332031 34.421875 C 20.449219 34.421875 22.898438 33.898438 25.214844 32.734375 L 24.71875 31.394531 C 22.816406 32.371094 20.449219 32.882812 17.847656 32.882812 C 14.34375 32.882812 11.195312 31.644531 8.988281 29.390625 C 6.6875 27.046875 5.472656 23.765625 5.472656 19.902344 C 5.472656 17.554688 5.859375 15.347656 6.617188 13.34375 C 7.339844 11.433594 8.386719 9.746094 9.726562 8.332031 C 12.363281 5.550781 15.960938 4.019531 19.859375 4.019531 C 23.4375 4.019531 26.425781 5.191406 28.492188 7.414062 C 30.480469 9.542969 31.53125 12.519531 31.53125 16.019531 C 31.53125 19.257812 30.582031 22.042969 28.933594 23.660156 C 28.078125 24.5 27.078125 24.949219 26.117188 24.933594 C 25.503906 24.914062 25.019531 24.683594 24.671875 24.246094 C 23.980469 23.382812 23.882812 21.753906 24.375 19.273438 L 25.914062 11.085938 C 24.632812 10.550781 22.972656 10.246094 21.308594 10.246094 C 15.390625 10.246094 10.578125 15.058594 10.578125 20.976562 C 10.578125 24.238281 12.507812 26.515625 15.273438 26.515625 C 17.933594 26.515625 19.992188 25.226562 21.566406 22.574219 L 21.667969 22.402344 L 22.425781 22.402344 L 22.410156 22.773438 C 22.347656 23.980469 22.648438 24.964844 23.273438 25.625 C 23.820312 26.199219 24.617188 26.515625 25.515625 26.515625 C 27.632812 26.515625 29.601562 25.519531 31.050781 23.714844 C 32.644531 21.730469 33.488281 18.972656 33.488281 15.738281 C 33.488281 7.988281 28.035156 2.574219 20.230469 2.574219 Z M 17.332031 35.128906 C 13.40625 35.128906 9.78125 33.695312 7.121094 31.097656 C 5.761719 29.769531 4.703125 28.183594 3.96875 26.382812 C 3.199219 24.492188 2.808594 22.40625 2.808594 20.183594 C 2.808594 15.285156 4.488281 10.730469 7.539062 7.351562 C 9.097656 5.628906 10.945312 4.285156 13.039062 3.351562 C 15.246094 2.367188 17.664062 1.867188 20.230469 1.867188 C 22.269531 1.867188 24.183594 2.21875 25.921875 2.90625 C 27.609375 3.578125 29.097656 4.550781 30.339844 5.800781 C 32.824219 8.308594 34.195312 11.835938 34.195312 15.738281 C 34.195312 19.136719 33.300781 22.046875 31.601562 24.15625 C 30.015625 26.132812 27.851562 27.222656 25.515625 27.222656 C 24.421875 27.222656 23.445312 26.828125 22.761719 26.109375 C 22.167969 25.488281 21.816406 24.648438 21.722656 23.644531 C 20.070312 26.050781 17.953125 27.222656 15.273438 27.222656 C 13.808594 27.222656 12.457031 26.628906 11.46875 25.546875 C 10.421875 24.402344 9.867188 22.820312 9.867188 20.976562 C 9.867188 18.042969 11.035156 15.140625 13.070312 13.015625 C 15.21875 10.773438 18.140625 9.539062 21.308594 9.539062 C 23.183594 9.539062 25.0625 9.910156 26.460938 10.554688 L 26.710938 10.667969 L 25.070312 19.40625 C 24.519531 22.191406 24.851562 23.335938 25.222656 23.804688 C 25.4375 24.074219 25.738281 24.210938 26.136719 24.226562 C 26.898438 24.238281 27.71875 23.859375 28.4375 23.15625 C 29.953125 21.667969 30.824219 19.066406 30.824219 16.019531 C 30.824219 9.054688 26.621094 4.726562 19.859375 4.726562 C 11.933594 4.726562 6.179688 11.109375 6.179688 19.902344 C 6.179688 27.242188 10.867188 32.175781 17.847656 32.175781 C 20.496094 32.175781 22.878906 31.625 24.734375 30.582031 L 25.097656 30.382812 L 26.097656 33.070312 L 25.820312 33.214844 C 23.316406 34.539062 20.695312 35.128906 17.332031 35.128906 " fill-opacity="1" fill-rule="nonzero"/></g></svg>