<svg xmlns="http://www.w3.org/2000/svg" xmlns:xlink="http://www.w3.org/1999/xlink" width="50" zoomAndPan="magnify" viewBox="0 0 37.5 37.499999" height="50" preserveAspectRatio="xMidYMid meet" version="1.0"><defs><g/><clipPath id="4b9f7c6a33"><path d="M 0 0 L 37.007812 0 L 37.007812 37.007812 L 0 37.007812 Z M 0 0 " clip-rule="nonzero"/></clipPath></defs><g clip-path="url(#4b9f7c6a33)"><path fill="#ffffff" d="M 0 0 L 37.007812 0 L 37.007812 37.007812 L 0 37.007812 Z M 0 0 " fill-opacity="1" fill-rule="nonzero"/><path fill="#000000" d="M 0 0 L 37.007812 0 L 37.007812 37.007812 L 0 37.007812 Z M 0 0 " fill-opacity="1" fill-rule="nonzero"/></g><g fill="#ffffff" fill-opacity="1"><g transform="translate(6.873631, 15.384194)"><g><path d="M 15.28125 -6.890625 C 15.3125 -6.753906 15.328125 -6.613281 15.328125 -6.46875 C 15.328125 -6.332031 15.328125 -6.195312 15.328125 -6.0625 C 15.328125 -4.894531 15.015625 -3.851562 14.390625 -2.9375 C 13.773438 -2.019531 12.953125 -1.296875 11.921875 -0.765625 C 10.898438 -0.234375 9.769531 0.03125 8.53125 0.03125 C 6.550781 0.03125 4.78125 -0.65625 3.21875 -2.03125 C 3.019531 -1.5 2.875 -0.941406 2.78125 -0.359375 C 2.6875 0.222656 2.640625 0.8125 2.640625 1.40625 C 2.640625 2.507812 2.785156 3.609375 3.078125 4.703125 C 3.378906 5.796875 3.796875 6.828125 4.328125 7.796875 C 4.867188 8.765625 5.488281 9.617188 6.1875 10.359375 L -0.109375 10.359375 C -0.691406 9.234375 -1.101562 8.066406 -1.34375 6.859375 C -1.59375 5.648438 -1.71875 4.460938 -1.71875 3.296875 C -1.71875 2.054688 -1.613281 0.875 -1.40625 -0.25 C -1.195312 -1.382812 -0.914062 -2.425781 -0.5625 -3.375 C -0.21875 -4.320312 0.140625 -5.128906 0.515625 -5.796875 C 0.171875 -6.597656 -0.109375 -7.472656 -0.328125 -8.421875 C -0.554688 -9.367188 -0.71875 -10.390625 -0.8125 -11.484375 L 3.703125 -11.234375 C 3.804688 -10.410156 4.023438 -9.554688 4.359375 -8.671875 C 4.703125 -7.785156 5.125 -6.957031 5.625 -6.1875 C 6.125 -5.425781 6.664062 -4.804688 7.25 -4.328125 C 7.832031 -3.859375 8.425781 -3.625 9.03125 -3.625 C 9.644531 -3.625 10.210938 -3.828125 10.734375 -4.234375 C 11.253906 -4.648438 11.515625 -5.179688 11.515625 -5.828125 C 11.515625 -6.410156 11.328125 -6.878906 10.953125 -7.234375 C 10.578125 -7.597656 10.085938 -7.78125 9.484375 -7.78125 C 8.972656 -7.78125 8.425781 -7.65625 7.84375 -7.40625 C 7.257812 -7.15625 6.71875 -6.789062 6.21875 -6.3125 C 5.882812 -6.789062 5.585938 -7.316406 5.328125 -7.890625 C 5.066406 -8.472656 4.863281 -9.097656 4.71875 -9.765625 C 5.488281 -10.253906 6.300781 -10.65625 7.15625 -10.96875 C 8.007812 -11.28125 8.835938 -11.4375 9.640625 -11.4375 C 10.609375 -11.4375 11.492188 -11.238281 12.296875 -10.84375 C 13.097656 -10.457031 13.765625 -9.921875 14.296875 -9.234375 C 14.828125 -8.546875 15.15625 -7.765625 15.28125 -6.890625 Z M 15.28125 -6.890625 "/></g></g></g><g fill="#ffffff" fill-opacity="1"><g transform="translate(17.873143, 23.239723)"><g><path d="M 15.28125 -6.890625 C 15.3125 -6.753906 15.328125 -6.613281 15.328125 -6.46875 C 15.328125 -6.332031 15.328125 -6.195312 15.328125 -6.0625 C 15.328125 -4.894531 15.015625 -3.851562 14.390625 -2.9375 C 13.773438 -2.019531 12.953125 -1.296875 11.921875 -0.765625 C 10.898438 -0.234375 9.769531 0.03125 8.53125 0.03125 C 6.550781 0.03125 4.78125 -0.65625 3.21875 -2.03125 C 3.019531 -1.5 2.875 -0.941406 2.78125 -0.359375 C 2.6875 0.222656 2.640625 0.8125 2.640625 1.40625 C 2.640625 2.507812 2.785156 3.609375 3.078125 4.703125 C 3.378906 5.796875 3.796875 6.828125 4.328125 7.796875 C 4.867188 8.765625 5.488281 9.617188 6.1875 10.359375 L -0.109375 10.359375 C -0.691406 9.234375 -1.101562 8.066406 -1.34375 6.859375 C -1.59375 5.648438 -1.71875 4.460938 -1.71875 3.296875 C -1.71875 2.054688 -1.613281 0.875 -1.40625 -0.25 C -1.195312 -1.382812 -0.914062 -2.425781 -0.5625 -3.375 C -0.21875 -4.320312 0.140625 -5.128906 0.515625 -5.796875 C 0.171875 -6.597656 -0.109375 -7.472656 -0.328125 -8.421875 C -0.554688 -9.367188 -0.71875 -10.390625 -0.8125 -11.484375 L 3.703125 -11.234375 C 3.804688 -10.410156 4.023438 -9.554688 4.359375 -8.671875 C 4.703125 -7.785156 5.125 -6.957031 5.625 -6.1875 C 6.125 -5.425781 6.664062 -4.804688 7.25 -4.328125 C 7.832031 -3.859375 8.425781 -3.625 9.03125 -3.625 C 9.644531 -3.625 10.210938 -3.828125 10.734375 -4.234375 C 11.253906 -4.648438 11.515625 -5.179688 11.515625 -5.828125 C 11.515625 -6.410156 11.328125 -6.878906 10.953125 -7.234375 C 10.578125 -7.597656 10.085938 -7.78125 9.484375 -7.78125 C 8.972656 -7.78125 8.425781 -7.65625 7.84375 -7.40625 C 7.257812 -7.15625 6.71875 -6.789062 6.21875 -6.3125 C 5.882812 -6.789062 5.585938 -7.316406 5.328125 -7.890625 C 5.066406 -8.472656 4.863281 -9.097656 4.71875 -9.765625 C 5.488281 -10.253906 6.300781 -10.65625 7.15625 -10.96875 C 8.007812 -11.28125 8.835938 -11.4375 9.640625 -11.4375 C 10.609375 -11.4375 11.492188 -11.238281 12.296875 -10.84375 C 13.097656 -10.457031 13.765625 -9.921875 14.296875 -9.234375 C 14.828125 -8.546875 15.15625 -7.765625 15.28125 -6.890625 Z M 15.28125 -6.890625 "/></g></g></g></svg>