<svg xmlns="http://www.w3.org/2000/svg" xmlns:xlink="http://www.w3.org/1999/xlink" width="50" zoomAndPan="magnify" viewBox="0 0 37.5 37.499999" height="50" preserveAspectRatio="xMidYMid meet" version="1.0"><defs><clipPath id="6a3fc9817a"><path d="M 3.441406 3.441406 L 33.785156 3.441406 L 33.785156 33.785156 L 3.441406 33.785156 Z M 3.441406 3.441406 " clip-rule="nonzero"/></clipPath></defs><g clip-path="url(#6a3fc9817a)"><path fill="#ffffff" d="M 25.171875 33.554688 L 11.828125 33.554688 C 7.21875 33.554688 3.441406 29.777344 3.441406 25.171875 L 3.441406 11.828125 C 3.441406 7.21875 7.21875 3.441406 11.828125 3.441406 L 25.171875 3.441406 C 29.777344 3.441406 33.554688 7.21875 33.554688 11.828125 L 33.554688 25.171875 C 33.554688 29.777344 29.777344 33.554688 25.171875 33.554688 Z M 11.828125 5.332031 C 8.285156 5.332031 5.332031 8.285156 5.332031 11.828125 L 5.332031 25.171875 C 5.332031 28.714844 8.285156 31.667969 11.828125 31.667969 L 25.171875 31.667969 C 28.714844 31.667969 31.667969 28.714844 31.667969 25.171875 L 31.667969 11.828125 C 31.667969 8.285156 28.714844 5.332031 25.171875 5.332031 Z M 11.828125 5.332031 " fill-opacity="1" fill-rule="evenodd"/></g><path fill="#ffffff" d="M 18.5 23.695312 C 15.664062 23.695312 13.300781 21.332031 13.300781 18.5 C 13.300781 15.664062 15.664062 13.300781 18.5 13.300781 C 21.332031 13.300781 23.695312 15.664062 23.695312 18.5 C 23.695312 21.332031 21.332031 23.695312 18.5 23.695312 Z M 18.5 15.191406 C 16.667969 15.191406 15.191406 16.667969 15.191406 18.5 C 15.191406 20.328125 16.667969 21.804688 18.5 21.804688 C 20.328125 21.804688 21.804688 20.328125 21.804688 18.5 C 21.804688 16.667969 20.328125 15.191406 18.5 15.191406 Z M 18.5 15.191406 " fill-opacity="1" fill-rule="evenodd"/><path fill="#ffffff" d="M 18.5 27 C 13.832031 27 9.996094 23.164062 9.996094 18.5 C 9.996094 13.832031 13.832031 9.996094 18.5 9.996094 C 23.164062 9.996094 27 13.832031 27 18.5 C 27 23.164062 23.164062 27 18.5 27 Z M 18.5 11.886719 C 14.835938 11.886719 11.886719 14.835938 11.886719 18.5 C 11.886719 22.160156 14.835938 25.113281 18.5 25.113281 C 22.160156 25.113281 25.113281 22.160156 25.113281 18.5 C 25.113281 14.835938 22.160156 11.886719 18.5 11.886719 Z M 18.5 11.886719 " fill-opacity="1" fill-rule="evenodd"/><path fill="#ffffff" d="M 11.53125 10.410156 L 9.464844 10.410156 C 8.933594 10.410156 8.519531 9.996094 8.519531 9.464844 C 8.519531 8.933594 8.933594 8.519531 9.464844 8.519531 L 11.53125 8.519531 C 12.0625 8.519531 12.476562 8.933594 12.476562 9.464844 C 12.476562 9.996094 12.0625 10.410156 11.53125 10.410156 Z M 11.53125 10.410156 " fill-opacity="1" fill-rule="evenodd"/></svg>