<svg xmlns="http://www.w3.org/2000/svg" xmlns:xlink="http://www.w3.org/1999/xlink" width="50" zoomAndPan="magnify" viewBox="0 0 37.5 37.499999" height="50" preserveAspectRatio="xMidYMid meet" version="1.0"><defs><clipPath id="44a8133583"><path d="M 0 0 L 37.007812 0 L 37.007812 37.007812 L 0 37.007812 Z M 0 0 " clip-rule="nonzero"/></clipPath></defs><g clip-path="url(#44a8133583)"><path fill="#ffffff" d="M 0 0 L 37.007812 0 L 37.007812 37.007812 L 0 37.007812 Z M 0 0 " fill-opacity="1" fill-rule="nonzero"/></g><path stroke-linecap="butt" transform="matrix(1.000178, 0, 0, 1.000178, 0.0000005, 0)" fill-opacity="1" fill="#ffffff" fill-rule="nonzero" stroke-linejoin="miter" d="M 1.999644 2.499556 L 8.9984 2.499556 M 9.998223 2.499556 L 11.00195 2.499556 M 14.001417 2.499556 L 16.001062 2.499556 M 17.000884 2.499556 L 19.000529 2.499556 M 20.000351 2.499556 L 21.000174 2.499556 M 21.999996 2.499556 L 23.99964 2.499556 M 24.999463 2.499556 L 25.999285 2.499556 M 27.99893 2.499556 L 35.001591 2.499556 M 1.999644 3.499378 L 2.999466 3.499378 M 7.998578 3.499378 L 8.9984 3.499378 M 11.00195 3.499378 L 12.001773 3.499378 M 13.001595 3.499378 L 17.000884 3.499378 M 18.000707 3.499378 L 19.000529 3.499378 M 20.000351 3.499378 L 21.999996 3.499378 M 22.999818 3.499378 L 24.999463 3.499378 M 27.99893 3.499378 L 28.998752 3.499378 M 34.001769 3.499378 L 35.001591 3.499378 M 1.999644 4.4992 L 2.999466 4.4992 M 3.999289 4.4992 L 6.998756 4.4992 M 7.998578 4.4992 L 8.9984 4.4992 M 12.001773 4.4992 L 13.001595 4.4992 M 16.001062 4.4992 L 17.000884 4.4992 M 19.000529 4.4992 L 21.000174 4.4992 M 21.999996 4.4992 L 23.99964 4.4992 M 24.999463 4.4992 L 25.999285 4.4992 M 27.99893 4.4992 L 28.998752 4.4992 M 29.998574 4.4992 L 33.001947 4.4992 M 34.001769 4.4992 L 35.001591 4.4992 M 1.999644 5.499023 L 2.999466 5.499023 M 3.999289 5.499023 L 6.998756 5.499023 M 7.998578 5.499023 L 8.9984 5.499023 M 9.998223 5.499023 L 11.00195 5.499023 M 12.001773 5.499023 L 15.00124 5.499023 M 18.000707 5.499023 L 20.000351 5.499023 M 21.000174 5.499023 L 21.999996 5.499023 M 22.999818 5.499023 L 24.999463 5.499023 M 27.99893 5.499023 L 28.998752 5.499023 M 29.998574 5.499023 L 33.001947 5.499023 M 34.001769 5.499023 L 35.001591 5.499023 M 1.999644 6.498845 L 2.999466 6.498845 M 3.999289 6.498845 L 6.998756 6.498845 M 7.998578 6.498845 L 8.9984 6.498845 M 9.998223 6.498845 L 11.00195 6.498845 M 12.001773 6.498845 L 16.001062 6.498845 M 18.000707 6.498845 L 20.000351 6.498845 M 21.000174 6.498845 L 21.999996 6.498845 M 22.999818 6.498845 L 23.99964 6.498845 M 24.999463 6.498845 L 26.999107 6.498845 M 27.99893 6.498845 L 28.998752 6.498845 M 29.998574 6.498845 L 33.001947 6.498845 M 34.001769 6.498845 L 35.001591 6.498845 M 1.999644 7.498667 L 2.999466 7.498667 M 7.998578 7.498667 L 8.9984 7.498667 M 9.998223 7.498667 L 12.001773 7.498667 M 13.001595 7.498667 L 14.001417 7.498667 M 15.00124 7.498667 L 16.001062 7.498667 M 17.000884 7.498667 L 18.000707 7.498667 M 19.000529 7.498667 L 20.000351 7.498667 M 21.999996 7.498667 L 24.999463 7.498667 M 27.99893 7.498667 L 28.998752 7.498667 M 34.001769 7.498667 L 35.001591 7.498667 M 1.999644 8.49849 L 8.9984 8.49849 M 9.998223 8.49849 L 11.00195 8.49849 M 12.001773 8.49849 L 13.001595 8.49849 M 14.001417 8.49849 L 15.00124 8.49849 M 16.001062 8.49849 L 17.000884 8.49849 M 18.000707 8.49849 L 19.000529 8.49849 M 20.000351 8.49849 L 21.000174 8.49849 M 21.999996 8.49849 L 22.999818 8.49849 M 23.99964 8.49849 L 24.999463 8.49849 M 25.999285 8.49849 L 26.999107 8.49849 M 27.99893 8.49849 L 35.001591 8.49849 M 9.998223 9.498312 L 12.001773 9.498312 M 13.001595 9.498312 L 14.001417 9.498312 M 19.000529 9.498312 L 20.000351 9.498312 M 21.000174 9.498312 L 24.999463 9.498312 M 1.999644 10.498134 L 2.999466 10.498134 M 5.998933 10.498134 L 6.998756 10.498134 M 7.998578 10.498134 L 15.00124 10.498134 M 17.000884 10.498134 L 18.000707 10.498134 M 19.000529 10.498134 L 20.000351 10.498134 M 21.999996 10.498134 L 24.999463 10.498134 M 25.999285 10.498134 L 31.998219 10.498134 M 34.001769 10.498134 L 35.001591 10.498134 M 1.999644 11.501862 L 2.999466 11.501862 M 3.999289 11.501862 L 7.998578 11.501862 M 8.9984 11.501862 L 9.998223 11.501862 M 12.001773 11.501862 L 13.001595 11.501862 M 14.001417 11.501862 L 15.00124 11.501862 M 17.000884 11.501862 L 21.000174 11.501862 M 22.999818 11.501862 L 25.999285 11.501862 M 26.999107 11.501862 L 27.99893 11.501862 M 30.998397 11.501862 L 34.001769 11.501862 M 1.999644 12.501684 L 5.998933 12.501684 M 7.998578 12.501684 L 11.00195 12.501684 M 15.00124 12.501684 L 19.000529 12.501684 M 20.000351 12.501684 L 21.000174 12.501684 M 21.999996 12.501684 L 22.999818 12.501684 M 24.999463 12.501684 L 25.999285 12.501684 M 26.999107 12.501684 L 27.99893 12.501684 M 30.998397 12.501684 L 31.998219 12.501684 M 33.001947 12.501684 L 34.001769 12.501684 M 3.999289 13.501507 L 7.998578 13.501507 M 9.998223 13.501507 L 11.00195 13.501507 M 12.001773 13.501507 L 14.001417 13.501507 M 15.00124 13.501507 L 16.001062 13.501507 M 17.000884 13.501507 L 18.000707 13.501507 M 23.99964 13.501507 L 24.999463 13.501507 M 25.999285 13.501507 L 26.999107 13.501507 M 34.001769 13.501507 L 35.001591 13.501507 M 1.999644 14.501329 L 3.999289 14.501329 M 5.998933 14.501329 L 9.998223 14.501329 M 11.00195 14.501329 L 16.001062 14.501329 M 17.000884 14.501329 L 19.000529 14.501329 M 21.000174 14.501329 L 21.999996 14.501329 M 23.99964 14.501329 L 25.999285 14.501329 M 27.99893 14.501329 L 31.998219 14.501329 M 33.001947 14.501329 L 35.001591 14.501329 M 1.999644 15.501151 L 2.999466 15.501151 M 4.999111 15.501151 L 7.998578 15.501151 M 11.00195 15.501151 L 12.001773 15.501151 M 13.001595 15.501151 L 14.001417 15.501151 M 16.001062 15.501151 L 17.000884 15.501151 M 20.000351 15.501151 L 22.999818 15.501151 M 24.999463 15.501151 L 25.999285 15.501151 M 28.998752 15.501151 L 29.998574 15.501151 M 30.998397 15.501151 L 33.001947 15.501151 M 1.999644 16.500974 L 2.999466 16.500974 M 4.999111 16.500974 L 5.998933 16.500974 M 7.998578 16.500974 L 9.998223 16.500974 M 11.00195 16.500974 L 12.001773 16.500974 M 13.001595 16.500974 L 14.001417 16.500974 M 16.001062 16.500974 L 18.000707 16.500974 M 21.999996 16.500974 L 22.999818 16.500974 M 23.99964 16.500974 L 28.998752 16.500974 M 30.998397 16.500974 L 34.001769 16.500974 M 1.999644 17.500796 L 3.999289 17.500796 M 4.999111 17.500796 L 6.998756 17.500796 M 8.9984 17.500796 L 11.00195 17.500796 M 13.001595 17.500796 L 14.001417 17.500796 M 16.001062 17.500796 L 21.000174 17.500796 M 22.999818 17.500796 L 23.99964 17.500796 M 25.999285 17.500796 L 30.998397 17.500796 M 1.999644 18.500618 L 2.999466 18.500618 M 5.998933 18.500618 L 6.998756 18.500618 M 7.998578 18.500618 L 16.001062 18.500618 M 19.000529 18.500618 L 20.000351 18.500618 M 21.000174 18.500618 L 26.999107 18.500618 M 27.99893 18.500618 L 28.998752 18.500618 M 29.998574 18.500618 L 30.998397 18.500618 M 33.001947 18.500618 L 34.001769 18.500618 M 3.999289 19.500441 L 4.999111 19.500441 M 9.998223 19.500441 L 15.00124 19.500441 M 16.001062 19.500441 L 19.000529 19.500441 M 20.000351 19.500441 L 21.000174 19.500441 M 23.99964 19.500441 L 26.999107 19.500441 M 30.998397 19.500441 L 33.001947 19.500441 M 1.999644 20.500263 L 2.999466 20.500263 M 3.999289 20.500263 L 6.998756 20.500263 M 7.998578 20.500263 L 9.998223 20.500263 M 11.00195 20.500263 L 15.00124 20.500263 M 16.001062 20.500263 L 20.000351 20.500263 M 22.999818 20.500263 L 27.99893 20.500263 M 28.998752 20.500263 L 29.998574 20.500263 M 30.998397 20.500263 L 31.998219 20.500263 M 33.001947 20.500263 L 34.001769 20.500263 M 1.999644 21.500085 L 2.999466 21.500085 M 4.999111 21.500085 L 5.998933 21.500085 M 6.998756 21.500085 L 7.998578 21.500085 M 8.9984 21.500085 L 9.998223 21.500085 M 11.00195 21.500085 L 12.001773 21.500085 M 14.001417 21.500085 L 21.999996 21.500085 M 22.999818 21.500085 L 23.99964 21.500085 M 25.999285 21.500085 L 27.99893 21.500085 M 28.998752 21.500085 L 29.998574 21.500085 M 33.001947 21.500085 L 34.001769 21.500085 M 1.999644 22.499907 L 3.999289 22.499907 M 4.999111 22.499907 L 5.998933 22.499907 M 7.998578 22.499907 L 8.9984 22.499907 M 11.00195 22.499907 L 15.00124 22.499907 M 20.000351 22.499907 L 22.999818 22.499907 M 25.999285 22.499907 L 26.999107 22.499907 M 27.99893 22.499907 L 31.998219 22.499907 M 34.001769 22.499907 L 35.001591 22.499907 M 1.999644 23.49973 L 2.999466 23.49973 M 3.999289 23.49973 L 4.999111 23.49973 M 5.998933 23.49973 L 7.998578 23.49973 M 11.00195 23.49973 L 13.001595 23.49973 M 14.001417 23.49973 L 17.000884 23.49973 M 18.000707 23.49973 L 20.000351 23.49973 M 21.000174 23.49973 L 21.999996 23.49973 M 23.99964 23.49973 L 25.999285 23.49973 M 26.999107 23.49973 L 27.99893 23.49973 M 28.998752 23.49973 L 29.998574 23.49973 M 30.998397 23.49973 L 34.001769 23.49973 M 7.998578 24.499552 L 8.9984 24.499552 M 9.998223 24.499552 L 11.00195 24.499552 M 15.00124 24.499552 L 17.000884 24.499552 M 18.000707 24.499552 L 19.000529 24.499552 M 20.000351 24.499552 L 21.999996 24.499552 M 22.999818 24.499552 L 23.99964 24.499552 M 24.999463 24.499552 L 27.99893 24.499552 M 28.998752 24.499552 L 30.998397 24.499552 M 33.001947 24.499552 L 34.001769 24.499552 M 3.999289 25.499374 L 7.998578 25.499374 M 8.9984 25.499374 L 9.998223 25.499374 M 14.001417 25.499374 L 16.001062 25.499374 M 19.000529 25.499374 L 25.999285 25.499374 M 26.999107 25.499374 L 28.998752 25.499374 M 29.998574 25.499374 L 30.998397 25.499374 M 33.001947 25.499374 L 34.001769 25.499374 M 1.999644 26.499197 L 5.998933 26.499197 M 7.998578 26.499197 L 16.001062 26.499197 M 17.000884 26.499197 L 20.000351 26.499197 M 22.999818 26.499197 L 30.998397 26.499197 M 9.998223 27.499019 L 11.00195 27.499019 M 12.001773 27.499019 L 15.00124 27.499019 M 16.001062 27.499019 L 21.000174 27.499019 M 22.999818 27.499019 L 23.99964 27.499019 M 24.999463 27.499019 L 26.999107 27.499019 M 29.998574 27.499019 L 30.998397 27.499019 M 31.998219 27.499019 L 34.001769 27.499019 M 1.999644 28.498841 L 8.9984 28.498841 M 9.998223 28.498841 L 11.00195 28.498841 M 14.001417 28.498841 L 16.001062 28.498841 M 17.000884 28.498841 L 18.000707 28.498841 M 20.000351 28.498841 L 21.000174 28.498841 M 21.999996 28.498841 L 22.999818 28.498841 M 25.999285 28.498841 L 26.999107 28.498841 M 27.99893 28.498841 L 28.998752 28.498841 M 29.998574 28.498841 L 31.998219 28.498841 M 33.001947 28.498841 L 34.001769 28.498841 M 1.999644 29.498664 L 2.999466 29.498664 M 7.998578 29.498664 L 8.9984 29.498664 M 12.001773 29.498664 L 14.001417 29.498664 M 21.000174 29.498664 L 22.999818 29.498664 M 23.99964 29.498664 L 24.999463 29.498664 M 25.999285 29.498664 L 26.999107 29.498664 M 29.998574 29.498664 L 30.998397 29.498664 M 1.999644 30.498486 L 2.999466 30.498486 M 3.999289 30.498486 L 6.998756 30.498486 M 7.998578 30.498486 L 8.9984 30.498486 M 9.998223 30.498486 L 13.001595 30.498486 M 14.001417 30.498486 L 15.00124 30.498486 M 17.000884 30.498486 L 19.000529 30.498486 M 21.000174 30.498486 L 21.999996 30.498486 M 23.99964 30.498486 L 24.999463 30.498486 M 25.999285 30.498486 L 31.998219 30.498486 M 33.001947 30.498486 L 35.001591 30.498486 M 1.999644 31.498308 L 2.999466 31.498308 M 3.999289 31.498308 L 6.998756 31.498308 M 7.998578 31.498308 L 8.9984 31.498308 M 11.00195 31.498308 L 12.001773 31.498308 M 14.001417 31.498308 L 17.000884 31.498308 M 19.000529 31.498308 L 22.999818 31.498308 M 24.999463 31.498308 L 25.999285 31.498308 M 27.99893 31.498308 L 30.998397 31.498308 M 31.998219 31.498308 L 34.001769 31.498308 M 1.999644 32.498131 L 2.999466 32.498131 M 3.999289 32.498131 L 6.998756 32.498131 M 7.998578 32.498131 L 8.9984 32.498131 M 11.00195 32.498131 L 14.001417 32.498131 M 15.00124 32.498131 L 18.000707 32.498131 M 19.000529 32.498131 L 21.000174 32.498131 M 21.999996 32.498131 L 24.999463 32.498131 M 26.999107 32.498131 L 30.998397 32.498131 M 31.998219 32.498131 L 33.001947 32.498131 M 1.999644 33.501858 L 2.999466 33.501858 M 7.998578 33.501858 L 8.9984 33.501858 M 12.001773 33.501858 L 13.001595 33.501858 M 16.001062 33.501858 L 21.000174 33.501858 M 22.999818 33.501858 L 23.99964 33.501858 M 24.999463 33.501858 L 27.99893 33.501858 M 1.999644 34.501681 L 8.9984 34.501681 M 9.998223 34.501681 L 11.00195 34.501681 M 12.001773 34.501681 L 14.001417 34.501681 M 16.001062 34.501681 L 17.000884 34.501681 M 19.000529 34.501681 L 28.998752 34.501681 M 30.998397 34.501681 L 31.998219 34.501681 M 34.001769 34.501681 L 35.001591 34.501681 " stroke="#000000" stroke-width="1" stroke-opacity="1" stroke-miterlimit="4"/></svg>