<svg xmlns="http://www.w3.org/2000/svg" xmlns:xlink="http://www.w3.org/1999/xlink" width="50" zoomAndPan="magnify" viewBox="0 0 37.5 37.499999" height="50" preserveAspectRatio="xMidYMid meet" version="1.0"><defs><clipPath id="5f0f2b73e6"><path d="M 2 3 L 34 3 L 34 35.15625 L 2 35.15625 Z M 2 3 " clip-rule="nonzero"/></clipPath></defs><g clip-path="url(#5f0f2b73e6)"><path fill="#ffffff" d="M 18.042969 35.140625 C 17.148438 35.140625 16.261719 35.0625 15.382812 34.910156 C 14.503906 34.757812 13.644531 34.53125 12.800781 34.230469 C 11.960938 33.929688 11.152344 33.5625 10.375 33.121094 C 9.597656 32.683594 8.863281 32.179688 8.171875 31.613281 C 7.484375 31.050781 6.84375 30.429688 6.261719 29.753906 C 5.675781 29.078125 5.152344 28.359375 4.691406 27.59375 C 4.230469 26.832031 3.839844 26.03125 3.515625 25.199219 C 3.191406 24.367188 2.941406 23.515625 2.765625 22.640625 C 2.585938 21.765625 2.484375 20.882812 2.460938 19.988281 C 2.433594 19.097656 2.484375 18.207031 2.613281 17.324219 C 2.738281 16.441406 2.941406 15.574219 3.214844 14.726562 C 3.492188 13.878906 3.835938 13.058594 4.253906 12.269531 C 4.671875 11.476562 5.152344 10.730469 5.695312 10.023438 C 6.242188 9.316406 6.84375 8.660156 7.5 8.054688 C 8.15625 7.453125 8.859375 6.910156 9.613281 6.425781 C 10.363281 5.941406 11.148438 5.527344 11.972656 5.179688 C 12.914062 4.785156 13.886719 4.484375 14.886719 4.28125 C 15.890625 4.078125 16.902344 3.972656 17.921875 3.96875 C 18.945312 3.964844 19.957031 4.058594 20.960938 4.253906 C 21.964844 4.449219 22.9375 4.738281 23.886719 5.125 C 24.832031 5.511719 25.730469 5.984375 26.585938 6.546875 C 27.4375 7.109375 28.226562 7.75 28.953125 8.46875 C 29.683594 9.1875 30.332031 9.96875 30.90625 10.816406 C 31.480469 11.664062 31.964844 12.554688 32.363281 13.496094 C 32.761719 14.4375 33.0625 15.410156 33.269531 16.410156 C 33.476562 17.410156 33.582031 18.421875 33.589844 19.445312 C 33.597656 20.46875 33.507812 21.480469 33.316406 22.484375 C 33.125 23.488281 32.839844 24.464844 32.457031 25.410156 C 32.074219 26.359375 31.601562 27.261719 31.039062 28.113281 C 30.480469 28.96875 29.84375 29.761719 29.128906 30.492188 C 28.410156 31.222656 27.632812 31.875 26.789062 32.449219 C 25.941406 33.027344 25.050781 33.515625 24.109375 33.914062 C 22.171875 34.734375 20.148438 35.144531 18.042969 35.140625 Z M 18.042969 4.839844 C 9.929688 4.839844 3.332031 11.4375 3.332031 19.546875 C 3.332031 27.65625 9.929688 34.257812 18.042969 34.257812 C 26.152344 34.257812 32.75 27.65625 32.75 19.546875 C 32.75 11.4375 26.152344 4.839844 18.042969 4.839844 Z M 18.042969 4.839844 " fill-opacity="1" fill-rule="nonzero"/></g><path fill="#ffffff" d="M 12.941406 28.40625 L 10.84375 28.40625 C 10.722656 28.40625 10.617188 28.363281 10.53125 28.273438 C 10.445312 28.1875 10.402344 28.085938 10.402344 27.960938 L 10.402344 16.425781 C 10.402344 16.304688 10.445312 16.199219 10.53125 16.113281 C 10.617188 16.027344 10.722656 15.984375 10.84375 15.984375 L 12.941406 15.984375 C 13.0625 15.984375 13.167969 16.027344 13.253906 16.113281 C 13.339844 16.199219 13.382812 16.304688 13.382812 16.425781 L 13.382812 27.960938 C 13.382812 28.085938 13.339844 28.1875 13.253906 28.273438 C 13.167969 28.363281 13.0625 28.40625 12.941406 28.40625 Z M 11.285156 27.519531 L 12.5 27.519531 L 12.5 16.867188 L 11.285156 16.867188 Z M 11.285156 27.519531 " fill-opacity="1" fill-rule="nonzero"/><path fill="#ffffff" d="M 26.242188 28.40625 L 24.144531 28.40625 C 24.023438 28.40625 23.917969 28.363281 23.832031 28.273438 C 23.746094 28.1875 23.703125 28.085938 23.703125 27.960938 L 23.703125 21.3125 C 23.703125 20.402344 23.523438 19.65625 23.183594 19.160156 C 22.8125 18.613281 22.253906 18.347656 21.472656 18.347656 C 20.210938 18.347656 19.363281 19.265625 19.085938 20.179688 C 19.082031 20.1875 19.082031 20.191406 19.078125 20.199219 C 19.003906 20.402344 18.960938 20.707031 18.960938 21.027344 L 18.960938 27.960938 C 18.960938 28.085938 18.917969 28.1875 18.832031 28.277344 C 18.746094 28.363281 18.640625 28.40625 18.519531 28.40625 L 16.421875 28.40625 C 16.300781 28.40625 16.195312 28.363281 16.109375 28.277344 C 16.023438 28.1875 15.980469 28.085938 15.980469 27.960938 L 15.980469 19.546875 C 15.980469 18.261719 15.949219 17.339844 15.886719 16.460938 C 15.875 16.332031 15.914062 16.21875 16 16.125 C 16.089844 16.03125 16.195312 15.984375 16.324219 15.984375 L 18.183594 15.984375 C 18.300781 15.984375 18.402344 16.023438 18.488281 16.101562 C 18.574219 16.183594 18.621094 16.28125 18.628906 16.398438 L 18.675781 17.152344 C 18.929688 16.886719 19.210938 16.660156 19.523438 16.460938 C 20.292969 15.976562 21.207031 15.722656 22.164062 15.722656 C 22.808594 15.722656 24.042969 15.863281 25.097656 16.804688 C 25.589844 17.246094 25.976562 17.808594 26.238281 18.472656 C 26.535156 19.210938 26.683594 20.085938 26.683594 21.074219 L 26.683594 27.960938 C 26.683594 28.082031 26.640625 28.1875 26.554688 28.273438 C 26.46875 28.363281 26.363281 28.40625 26.242188 28.40625 Z M 24.585938 27.519531 L 25.800781 27.519531 L 25.800781 21.074219 C 25.800781 16.929688 23.019531 16.605469 22.164062 16.605469 C 20.382812 16.605469 19.207031 17.644531 18.742188 18.535156 C 18.660156 18.695312 18.53125 18.773438 18.351562 18.773438 L 18.304688 18.773438 C 18.1875 18.773438 18.085938 18.734375 18 18.65625 C 17.914062 18.574219 17.871094 18.476562 17.863281 18.359375 L 17.769531 16.867188 L 16.800781 16.867188 C 16.84375 17.632812 16.863281 18.464844 16.863281 19.546875 L 16.863281 27.519531 L 18.078125 27.519531 L 18.078125 21.027344 C 18.078125 20.605469 18.136719 20.207031 18.242188 19.910156 C 18.457031 19.21875 18.84375 18.648438 19.40625 18.195312 C 20.007812 17.703125 20.699219 17.460938 21.472656 17.460938 C 23.453125 17.460938 24.585938 18.863281 24.585938 21.3125 Z M 24.585938 27.519531 " fill-opacity="1" fill-rule="nonzero"/><path fill="#ffffff" d="M 11.882812 15.65625 C 11.707031 15.652344 11.578125 15.578125 11.492188 15.425781 L 10.835938 14.21875 L 9.628906 13.5625 C 9.476562 13.476562 9.398438 13.347656 9.398438 13.171875 C 9.398438 12.996094 9.476562 12.867188 9.628906 12.785156 L 10.835938 12.125 L 11.492188 10.917969 C 11.578125 10.765625 11.707031 10.691406 11.882812 10.691406 C 12.058594 10.691406 12.1875 10.765625 12.269531 10.917969 L 12.929688 12.125 L 14.136719 12.785156 C 14.289062 12.867188 14.367188 12.996094 14.367188 13.171875 C 14.367188 13.347656 14.289062 13.476562 14.136719 13.5625 L 12.929688 14.21875 L 12.269531 15.425781 C 12.1875 15.578125 12.054688 15.65625 11.882812 15.65625 Z M 10.761719 13.171875 L 11.371094 13.507812 C 11.449219 13.546875 11.507812 13.605469 11.546875 13.683594 L 11.882812 14.292969 L 12.214844 13.683594 C 12.253906 13.605469 12.3125 13.546875 12.390625 13.507812 L 13 13.171875 L 12.390625 12.839844 C 12.3125 12.796875 12.253906 12.738281 12.214844 12.664062 L 11.882812 12.054688 L 11.546875 12.664062 C 11.507812 12.738281 11.449219 12.796875 11.371094 12.839844 Z M 10.761719 13.171875 " fill-opacity="1" fill-rule="nonzero"/></svg>