<svg xmlns="http://www.w3.org/2000/svg" xmlns:xlink="http://www.w3.org/1999/xlink" width="50" zoomAndPan="magnify" viewBox="0 0 37.5 37.499999" height="50" preserveAspectRatio="xMidYMid meet" version="1.0"><defs><clipPath id="7172afb63d"><path d="M 0 0 L 37.007812 0 L 37.007812 37.007812 L 0 37.007812 Z M 0 0 " clip-rule="nonzero"/></clipPath></defs><g clip-path="url(#7172afb63d)"><path fill="#ffffff" d="M 0 0 L 37.007812 0 L 37.007812 37.007812 L 0 37.007812 Z M 0 0 " fill-opacity="1" fill-rule="nonzero"/></g><path stroke-linecap="butt" transform="matrix(1.000178, 0, 0, 1.000178, 0.0000005, 0)" fill-opacity="1" fill="#ffffff" fill-rule="nonzero" stroke-linejoin="miter" d="M 1.999644 2.499556 L 8.9984 2.499556 M 11.00195 2.499556 L 13.001595 2.499556 M 14.001417 2.499556 L 15.00124 2.499556 M 18.000707 2.499556 L 19.000529 2.499556 M 20.000351 2.499556 L 23.99964 2.499556 M 24.999463 2.499556 L 25.999285 2.499556 M 27.99893 2.499556 L 35.001591 2.499556 M 1.999644 3.499378 L 2.999466 3.499378 M 7.998578 3.499378 L 8.9984 3.499378 M 14.001417 3.499378 L 15.00124 3.499378 M 17.000884 3.499378 L 19.000529 3.499378 M 20.000351 3.499378 L 21.000174 3.499378 M 25.999285 3.499378 L 26.999107 3.499378 M 27.99893 3.499378 L 28.998752 3.499378 M 34.001769 3.499378 L 35.001591 3.499378 M 1.999644 4.4992 L 2.999466 4.4992 M 3.999289 4.4992 L 6.998756 4.4992 M 7.998578 4.4992 L 8.9984 4.4992 M 9.998223 4.4992 L 12.001773 4.4992 M 13.001595 4.4992 L 14.001417 4.4992 M 16.001062 4.4992 L 18.000707 4.4992 M 21.000174 4.4992 L 23.99964 4.4992 M 27.99893 4.4992 L 28.998752 4.4992 M 29.998574 4.4992 L 33.001947 4.4992 M 34.001769 4.4992 L 35.001591 4.4992 M 1.999644 5.499023 L 2.999466 5.499023 M 3.999289 5.499023 L 6.998756 5.499023 M 7.998578 5.499023 L 8.9984 5.499023 M 9.998223 5.499023 L 15.00124 5.499023 M 17.000884 5.499023 L 18.000707 5.499023 M 20.000351 5.499023 L 21.999996 5.499023 M 24.999463 5.499023 L 26.999107 5.499023 M 27.99893 5.499023 L 28.998752 5.499023 M 29.998574 5.499023 L 33.001947 5.499023 M 34.001769 5.499023 L 35.001591 5.499023 M 1.999644 6.498845 L 2.999466 6.498845 M 3.999289 6.498845 L 6.998756 6.498845 M 7.998578 6.498845 L 8.9984 6.498845 M 9.998223 6.498845 L 11.00195 6.498845 M 12.001773 6.498845 L 13.001595 6.498845 M 16.001062 6.498845 L 19.000529 6.498845 M 21.999996 6.498845 L 22.999818 6.498845 M 24.999463 6.498845 L 25.999285 6.498845 M 27.99893 6.498845 L 28.998752 6.498845 M 29.998574 6.498845 L 33.001947 6.498845 M 34.001769 6.498845 L 35.001591 6.498845 M 1.999644 7.498667 L 2.999466 7.498667 M 7.998578 7.498667 L 8.9984 7.498667 M 9.998223 7.498667 L 12.001773 7.498667 M 16.001062 7.498667 L 17.000884 7.498667 M 19.000529 7.498667 L 21.999996 7.498667 M 22.999818 7.498667 L 23.99964 7.498667 M 27.99893 7.498667 L 28.998752 7.498667 M 34.001769 7.498667 L 35.001591 7.498667 M 1.999644 8.49849 L 8.9984 8.49849 M 9.998223 8.49849 L 11.00195 8.49849 M 12.001773 8.49849 L 13.001595 8.49849 M 14.001417 8.49849 L 15.00124 8.49849 M 16.001062 8.49849 L 17.000884 8.49849 M 18.000707 8.49849 L 19.000529 8.49849 M 20.000351 8.49849 L 21.000174 8.49849 M 21.999996 8.49849 L 22.999818 8.49849 M 23.99964 8.49849 L 24.999463 8.49849 M 25.999285 8.49849 L 26.999107 8.49849 M 27.99893 8.49849 L 35.001591 8.49849 M 9.998223 9.498312 L 11.00195 9.498312 M 12.001773 9.498312 L 14.001417 9.498312 M 18.000707 9.498312 L 19.000529 9.498312 M 21.000174 9.498312 L 24.999463 9.498312 M 1.999644 10.498134 L 2.999466 10.498134 M 3.999289 10.498134 L 8.9984 10.498134 M 12.001773 10.498134 L 14.001417 10.498134 M 15.00124 10.498134 L 17.000884 10.498134 M 19.000529 10.498134 L 20.000351 10.498134 M 21.000174 10.498134 L 21.999996 10.498134 M 23.99964 10.498134 L 24.999463 10.498134 M 25.999285 10.498134 L 26.999107 10.498134 M 27.99893 10.498134 L 33.001947 10.498134 M 2.999466 11.501862 L 4.999111 11.501862 M 5.998933 11.501862 L 6.998756 11.501862 M 8.9984 11.501862 L 11.00195 11.501862 M 12.001773 11.501862 L 14.001417 11.501862 M 15.00124 11.501862 L 16.001062 11.501862 M 18.000707 11.501862 L 21.999996 11.501862 M 22.999818 11.501862 L 23.99964 11.501862 M 24.999463 11.501862 L 25.999285 11.501862 M 27.99893 11.501862 L 29.998574 11.501862 M 30.998397 11.501862 L 33.001947 11.501862 M 34.001769 11.501862 L 35.001591 11.501862 M 1.999644 12.501684 L 2.999466 12.501684 M 3.999289 12.501684 L 5.998933 12.501684 M 6.998756 12.501684 L 9.998223 12.501684 M 11.00195 12.501684 L 20.000351 12.501684 M 22.999818 12.501684 L 23.99964 12.501684 M 25.999285 12.501684 L 26.999107 12.501684 M 29.998574 12.501684 L 30.998397 12.501684 M 31.998219 12.501684 L 34.001769 12.501684 M 1.999644 13.501507 L 2.999466 13.501507 M 4.999111 13.501507 L 5.998933 13.501507 M 11.00195 13.501507 L 12.001773 13.501507 M 14.001417 13.501507 L 16.001062 13.501507 M 18.000707 13.501507 L 23.99964 13.501507 M 24.999463 13.501507 L 25.999285 13.501507 M 26.999107 13.501507 L 27.99893 13.501507 M 29.998574 13.501507 L 34.001769 13.501507 M 2.999466 14.501329 L 4.999111 14.501329 M 5.998933 14.501329 L 6.998756 14.501329 M 7.998578 14.501329 L 11.00195 14.501329 M 14.001417 14.501329 L 15.00124 14.501329 M 16.001062 14.501329 L 17.000884 14.501329 M 18.000707 14.501329 L 19.000529 14.501329 M 21.000174 14.501329 L 21.999996 14.501329 M 24.999463 14.501329 L 25.999285 14.501329 M 26.999107 14.501329 L 27.99893 14.501329 M 28.998752 14.501329 L 31.998219 14.501329 M 33.001947 14.501329 L 35.001591 14.501329 M 3.999289 15.501151 L 6.998756 15.501151 M 8.9984 15.501151 L 15.00124 15.501151 M 17.000884 15.501151 L 18.000707 15.501151 M 19.000529 15.501151 L 21.000174 15.501151 M 23.99964 15.501151 L 26.999107 15.501151 M 27.99893 15.501151 L 28.998752 15.501151 M 31.998219 15.501151 L 35.001591 15.501151 M 1.999644 16.500974 L 2.999466 16.500974 M 3.999289 16.500974 L 4.999111 16.500974 M 7.998578 16.500974 L 12.001773 16.500974 M 13.001595 16.500974 L 15.00124 16.500974 M 17.000884 16.500974 L 20.000351 16.500974 M 23.99964 16.500974 L 24.999463 16.500974 M 26.999107 16.500974 L 28.998752 16.500974 M 30.998397 16.500974 L 31.998219 16.500974 M 33.001947 16.500974 L 34.001769 16.500974 M 1.999644 17.500796 L 3.999289 17.500796 M 5.998933 17.500796 L 7.998578 17.500796 M 8.9984 17.500796 L 9.998223 17.500796 M 11.00195 17.500796 L 12.001773 17.500796 M 13.001595 17.500796 L 14.001417 17.500796 M 17.000884 17.500796 L 18.000707 17.500796 M 21.999996 17.500796 L 23.99964 17.500796 M 24.999463 17.500796 L 28.998752 17.500796 M 29.998574 17.500796 L 33.001947 17.500796 M 1.999644 18.500618 L 2.999466 18.500618 M 4.999111 18.500618 L 5.998933 18.500618 M 6.998756 18.500618 L 8.9984 18.500618 M 9.998223 18.500618 L 11.00195 18.500618 M 14.001417 18.500618 L 18.000707 18.500618 M 19.000529 18.500618 L 20.000351 18.500618 M 23.99964 18.500618 L 24.999463 18.500618 M 25.999285 18.500618 L 27.99893 18.500618 M 28.998752 18.500618 L 30.998397 18.500618 M 34.001769 18.500618 L 35.001591 18.500618 M 1.999644 19.500441 L 3.999289 19.500441 M 4.999111 19.500441 L 5.998933 19.500441 M 6.998756 19.500441 L 7.998578 19.500441 M 9.998223 19.500441 L 13.001595 19.500441 M 15.00124 19.500441 L 16.001062 19.500441 M 20.000351 19.500441 L 23.99964 19.500441 M 24.999463 19.500441 L 29.998574 19.500441 M 30.998397 19.500441 L 33.001947 19.500441 M 34.001769 19.500441 L 35.001591 19.500441 M 4.999111 20.500263 L 5.998933 20.500263 M 6.998756 20.500263 L 8.9984 20.500263 M 9.998223 20.500263 L 12.001773 20.500263 M 14.001417 20.500263 L 15.00124 20.500263 M 17.000884 20.500263 L 18.000707 20.500263 M 20.000351 20.500263 L 21.000174 20.500263 M 21.999996 20.500263 L 23.99964 20.500263 M 26.999107 20.500263 L 30.998397 20.500263 M 31.998219 20.500263 L 33.001947 20.500263 M 2.999466 21.500085 L 3.999289 21.500085 M 11.00195 21.500085 L 14.001417 21.500085 M 15.00124 21.500085 L 16.001062 21.500085 M 18.000707 21.500085 L 19.000529 21.500085 M 22.999818 21.500085 L 23.99964 21.500085 M 24.999463 21.500085 L 25.999285 21.500085 M 27.99893 21.500085 L 34.001769 21.500085 M 1.999644 22.499907 L 8.9984 22.499907 M 9.998223 22.499907 L 13.001595 22.499907 M 14.001417 22.499907 L 16.001062 22.499907 M 20.000351 22.499907 L 22.999818 22.499907 M 23.99964 22.499907 L 24.999463 22.499907 M 28.998752 22.499907 L 31.998219 22.499907 M 33.001947 22.499907 L 35.001591 22.499907 M 1.999644 23.49973 L 3.999289 23.49973 M 4.999111 23.49973 L 7.998578 23.49973 M 9.998223 23.49973 L 11.00195 23.49973 M 13.001595 23.49973 L 15.00124 23.49973 M 17.000884 23.49973 L 20.000351 23.49973 M 24.999463 23.49973 L 26.999107 23.49973 M 27.99893 23.49973 L 28.998752 23.49973 M 34.001769 23.49973 L 35.001591 23.49973 M 1.999644 24.499552 L 2.999466 24.499552 M 5.998933 24.499552 L 6.998756 24.499552 M 7.998578 24.499552 L 8.9984 24.499552 M 9.998223 24.499552 L 13.001595 24.499552 M 16.001062 24.499552 L 17.000884 24.499552 M 26.999107 24.499552 L 27.99893 24.499552 M 28.998752 24.499552 L 29.998574 24.499552 M 31.998219 24.499552 L 34.001769 24.499552 M 1.999644 25.499374 L 2.999466 25.499374 M 4.999111 25.499374 L 5.998933 25.499374 M 9.998223 25.499374 L 11.00195 25.499374 M 13.001595 25.499374 L 17.000884 25.499374 M 18.000707 25.499374 L 19.000529 25.499374 M 21.000174 25.499374 L 21.999996 25.499374 M 22.999818 25.499374 L 24.999463 25.499374 M 25.999285 25.499374 L 29.998574 25.499374 M 30.998397 25.499374 L 34.001769 25.499374 M 1.999644 26.499197 L 2.999466 26.499197 M 3.999289 26.499197 L 4.999111 26.499197 M 7.998578 26.499197 L 9.998223 26.499197 M 12.001773 26.499197 L 13.001595 26.499197 M 19.000529 26.499197 L 21.000174 26.499197 M 23.99964 26.499197 L 30.998397 26.499197 M 33.001947 26.499197 L 35.001591 26.499197 M 9.998223 27.499019 L 12.001773 27.499019 M 13.001595 27.499019 L 15.00124 27.499019 M 18.000707 27.499019 L 23.99964 27.499019 M 24.999463 27.499019 L 26.999107 27.499019 M 29.998574 27.499019 L 30.998397 27.499019 M 31.998219 27.499019 L 33.001947 27.499019 M 34.001769 27.499019 L 35.001591 27.499019 M 1.999644 28.498841 L 8.9984 28.498841 M 12.001773 28.498841 L 13.001595 28.498841 M 14.001417 28.498841 L 15.00124 28.498841 M 17.000884 28.498841 L 20.000351 28.498841 M 22.999818 28.498841 L 23.99964 28.498841 M 24.999463 28.498841 L 26.999107 28.498841 M 27.99893 28.498841 L 28.998752 28.498841 M 29.998574 28.498841 L 30.998397 28.498841 M 31.998219 28.498841 L 34.001769 28.498841 M 1.999644 29.498664 L 2.999466 29.498664 M 7.998578 29.498664 L 8.9984 29.498664 M 9.998223 29.498664 L 12.001773 29.498664 M 14.001417 29.498664 L 15.00124 29.498664 M 17.000884 29.498664 L 18.000707 29.498664 M 19.000529 29.498664 L 21.000174 29.498664 M 21.999996 29.498664 L 26.999107 29.498664 M 29.998574 29.498664 L 34.001769 29.498664 M 1.999644 30.498486 L 2.999466 30.498486 M 3.999289 30.498486 L 6.998756 30.498486 M 7.998578 30.498486 L 8.9984 30.498486 M 9.998223 30.498486 L 11.00195 30.498486 M 13.001595 30.498486 L 15.00124 30.498486 M 18.000707 30.498486 L 19.000529 30.498486 M 22.999818 30.498486 L 23.99964 30.498486 M 25.999285 30.498486 L 31.998219 30.498486 M 1.999644 31.498308 L 2.999466 31.498308 M 3.999289 31.498308 L 6.998756 31.498308 M 7.998578 31.498308 L 8.9984 31.498308 M 9.998223 31.498308 L 11.00195 31.498308 M 12.001773 31.498308 L 13.001595 31.498308 M 14.001417 31.498308 L 15.00124 31.498308 M 17.000884 31.498308 L 18.000707 31.498308 M 19.000529 31.498308 L 21.999996 31.498308 M 22.999818 31.498308 L 25.999285 31.498308 M 26.999107 31.498308 L 27.99893 31.498308 M 29.998574 31.498308 L 30.998397 31.498308 M 31.998219 31.498308 L 33.001947 31.498308 M 34.001769 31.498308 L 35.001591 31.498308 M 1.999644 32.498131 L 2.999466 32.498131 M 3.999289 32.498131 L 6.998756 32.498131 M 7.998578 32.498131 L 8.9984 32.498131 M 9.998223 32.498131 L 11.00195 32.498131 M 12.001773 32.498131 L 16.001062 32.498131 M 17.000884 32.498131 L 20.000351 32.498131 M 21.999996 32.498131 L 29.998574 32.498131 M 30.998397 32.498131 L 33.001947 32.498131 M 1.999644 33.501858 L 2.999466 33.501858 M 7.998578 33.501858 L 8.9984 33.501858 M 12.001773 33.501858 L 13.001595 33.501858 M 17.000884 33.501858 L 18.000707 33.501858 M 22.999818 33.501858 L 25.999285 33.501858 M 26.999107 33.501858 L 28.998752 33.501858 M 29.998574 33.501858 L 33.001947 33.501858 M 1.999644 34.501681 L 8.9984 34.501681 M 9.998223 34.501681 L 11.00195 34.501681 M 12.001773 34.501681 L 13.001595 34.501681 M 14.001417 34.501681 L 16.001062 34.501681 M 17.000884 34.501681 L 18.000707 34.501681 M 19.000529 34.501681 L 20.000351 34.501681 M 23.99964 34.501681 L 24.999463 34.501681 M 25.999285 34.501681 L 27.99893 34.501681 M 28.998752 34.501681 L 29.998574 34.501681 M 30.998397 34.501681 L 31.998219 34.501681 M 33.001947 34.501681 L 34.001769 34.501681 " stroke="#000000" stroke-width="1" stroke-opacity="1" stroke-miterlimit="4"/></svg>