<svg xmlns="http://www.w3.org/2000/svg" xmlns:xlink="http://www.w3.org/1999/xlink" width="50" zoomAndPan="magnify" viewBox="0 0 37.5 37.499999" height="50" preserveAspectRatio="xMidYMid meet" version="1.0"><metadata><ContainsAiGeneratedContent>Yes</ContainsAiGeneratedContent></metadata><defs><clipPath id="99d426c002"><path d="M 2.257812 2.257812 L 18 2.257812 L 18 18 L 2.257812 18 Z M 2.257812 2.257812 " clip-rule="nonzero"/></clipPath><clipPath id="3a51e445db"><path d="M 2.257812 19 L 18 19 L 18 34.824219 L 2.257812 34.824219 Z M 2.257812 19 " clip-rule="nonzero"/></clipPath><clipPath id="149e9a8624"><path d="M 19 2.257812 L 34.824219 2.257812 L 34.824219 18 L 19 18 Z M 19 2.257812 " clip-rule="nonzero"/></clipPath><clipPath id="e5b8aa4903"><path d="M 19 19 L 34.824219 19 L 34.824219 34.824219 L 19 34.824219 Z M 19 19 " clip-rule="nonzero"/></clipPath></defs><g clip-path="url(#99d426c002)"><path fill="#ffffff" d="M 17.417969 5.507812 C 17.417969 3.714844 15.960938 2.257812 14.167969 2.257812 L 5.507812 2.257812 C 3.714844 2.257812 2.257812 3.714844 2.257812 5.507812 L 2.257812 14.167969 C 2.257812 15.960938 3.714844 17.417969 5.507812 17.417969 C 5.507812 17.417969 14.167969 17.417969 14.167969 17.417969 C 15.960938 17.417969 17.417969 15.960938 17.417969 14.167969 C 17.417969 14.167969 17.417969 5.507812 17.417969 5.507812 Z M 15.25 5.507812 L 15.25 14.167969 C 15.25 14.765625 14.765625 15.25 14.167969 15.25 L 5.507812 15.25 C 4.910156 15.25 4.421875 14.765625 4.421875 14.167969 L 4.421875 5.507812 C 4.421875 4.910156 4.910156 4.421875 5.507812 4.421875 L 14.167969 4.421875 C 14.765625 4.421875 15.25 4.910156 15.25 5.507812 Z M 15.25 5.507812 " fill-opacity="1" fill-rule="evenodd"/></g><g clip-path="url(#3a51e445db)"><path fill="#ffffff" d="M 17.417969 22.832031 C 17.417969 21.039062 15.960938 19.582031 14.167969 19.582031 C 14.167969 19.582031 5.507812 19.582031 5.507812 19.582031 C 3.714844 19.582031 2.257812 21.039062 2.257812 22.832031 L 2.257812 31.492188 C 2.257812 33.285156 3.714844 34.742188 5.507812 34.742188 C 5.507812 34.742188 14.167969 34.742188 14.167969 34.742188 C 15.960938 34.742188 17.417969 33.285156 17.417969 31.492188 C 17.417969 31.492188 17.417969 22.832031 17.417969 22.832031 Z M 15.25 22.832031 L 15.25 31.492188 C 15.25 32.089844 14.765625 32.578125 14.167969 32.578125 L 5.507812 32.578125 C 4.910156 32.578125 4.421875 32.089844 4.421875 31.492188 L 4.421875 22.832031 C 4.421875 22.234375 4.910156 21.746094 5.507812 21.746094 L 14.167969 21.746094 C 14.765625 21.746094 15.25 22.234375 15.25 22.832031 Z M 15.25 22.832031 " fill-opacity="1" fill-rule="evenodd"/></g><g clip-path="url(#149e9a8624)"><path fill="#ffffff" d="M 34.742188 5.507812 C 34.742188 3.714844 33.285156 2.257812 31.492188 2.257812 L 22.832031 2.257812 C 21.039062 2.257812 19.582031 3.714844 19.582031 5.507812 C 19.582031 5.507812 19.582031 14.167969 19.582031 14.167969 C 19.582031 15.960938 21.039062 17.417969 22.832031 17.417969 C 22.832031 17.417969 31.492188 17.417969 31.492188 17.417969 C 33.285156 17.417969 34.742188 15.960938 34.742188 14.167969 C 34.742188 14.167969 34.742188 5.507812 34.742188 5.507812 Z M 32.578125 5.507812 L 32.578125 14.167969 C 32.578125 14.765625 32.089844 15.25 31.492188 15.25 L 22.832031 15.25 C 22.234375 15.25 21.746094 14.765625 21.746094 14.167969 L 21.746094 5.507812 C 21.746094 4.910156 22.234375 4.421875 22.832031 4.421875 L 31.492188 4.421875 C 32.089844 4.421875 32.578125 4.910156 32.578125 5.507812 Z M 32.578125 5.507812 " fill-opacity="1" fill-rule="evenodd"/></g><g clip-path="url(#e5b8aa4903)"><path fill="#ffffff" d="M 34.742188 22.832031 C 34.742188 21.039062 33.285156 19.582031 31.492188 19.582031 C 31.492188 19.582031 22.832031 19.582031 22.832031 19.582031 C 21.039062 19.582031 19.582031 21.039062 19.582031 22.832031 C 19.582031 22.832031 19.582031 31.492188 19.582031 31.492188 C 19.582031 33.285156 21.039062 34.742188 22.832031 34.742188 C 22.832031 34.742188 31.492188 34.742188 31.492188 34.742188 C 33.285156 34.742188 34.742188 33.285156 34.742188 31.492188 C 34.742188 31.492188 34.742188 22.832031 34.742188 22.832031 Z M 32.578125 22.832031 L 32.578125 31.492188 C 32.578125 32.089844 32.089844 32.578125 31.492188 32.578125 L 22.832031 32.578125 C 22.234375 32.578125 21.746094 32.089844 21.746094 31.492188 L 21.746094 22.832031 C 21.746094 22.234375 22.234375 21.746094 22.832031 21.746094 L 31.492188 21.746094 C 32.089844 21.746094 32.578125 22.234375 32.578125 22.832031 Z M 32.578125 22.832031 " fill-opacity="1" fill-rule="evenodd"/></g></svg>