<svg xmlns="http://www.w3.org/2000/svg" xmlns:xlink="http://www.w3.org/1999/xlink" width="50" zoomAndPan="magnify" viewBox="0 0 37.5 37.499999" height="50" preserveAspectRatio="xMidYMid meet" version="1.0"><defs><clipPath id="07bb3618fe"><path d="M 17 4.183594 L 33 4.183594 L 33 20 L 17 20 Z M 17 4.183594 " clip-rule="nonzero"/></clipPath><clipPath id="ca8e638546"><path d="M 4.183594 8 L 29 8 L 29 33 L 4.183594 33 Z M 4.183594 8 " clip-rule="nonzero"/></clipPath></defs><g clip-path="url(#07bb3618fe)"><path fill="#ffffff" d="M 28.210938 8.789062 C 25.585938 6.164062 21.960938 4.613281 17.4375 4.171875 L 17.328125 5.296875 C 21.582031 5.714844 24.976562 7.160156 27.40625 9.589844 C 29.839844 12.023438 31.28125 15.414062 31.699219 19.671875 L 32.828125 19.558594 C 32.386719 15.035156 30.832031 11.410156 28.210938 8.789062 " fill-opacity="1" fill-rule="nonzero"/></g><path fill="#ffffff" d="M 23.632812 19.734375 L 24.753906 19.574219 C 24.433594 17.332031 23.6875 15.613281 22.535156 14.460938 C 21.382812 13.308594 19.664062 12.5625 17.421875 12.242188 L 17.261719 13.363281 C 19.253906 13.648438 20.757812 14.289062 21.734375 15.261719 C 22.710938 16.238281 23.347656 17.742188 23.632812 19.734375 " fill-opacity="1" fill-rule="nonzero"/><path fill="#ffffff" d="M 17.425781 8.195312 L 17.296875 9.320312 C 20.425781 9.679688 22.871094 10.726562 24.570312 12.425781 C 26.273438 14.125 27.316406 16.574219 27.675781 19.699219 L 28.800781 19.570312 C 28.414062 16.183594 27.257812 13.511719 25.375 11.625 C 23.488281 9.738281 20.8125 8.585938 17.425781 8.195312 " fill-opacity="1" fill-rule="nonzero"/><g clip-path="url(#ca8e638546)"><path fill="#ffffff" d="M 25.214844 23.648438 C 24.328125 22.757812 22.882812 22.757812 21.996094 23.648438 L 20.285156 25.359375 C 20 25.640625 19.5625 25.699219 19.210938 25.507812 C 17.640625 24.652344 16.152344 23.546875 14.800781 22.195312 C 13.449219 20.847656 12.34375 19.355469 11.492188 17.789062 C 11.296875 17.433594 11.355469 16.996094 11.640625 16.710938 L 13.347656 15 C 14.238281 14.113281 14.238281 12.671875 13.347656 11.78125 L 10.675781 9.109375 C 9.789062 8.21875 8.347656 8.21875 7.457031 9.109375 L 5.515625 11.050781 C 4.582031 11.984375 4.195312 13.332031 4.5 14.613281 C 5.46875 18.71875 7.636719 22.71875 10.957031 26.039062 C 14.28125 29.363281 18.277344 31.527344 22.382812 32.496094 C 23.664062 32.800781 25.015625 32.414062 25.945312 31.484375 L 27.886719 29.539062 C 28.777344 28.652344 28.777344 27.210938 27.886719 26.320312 L 25.214844 23.648438 " fill-opacity="1" fill-rule="nonzero"/></g></svg>