<svg xmlns="http://www.w3.org/2000/svg" xmlns:xlink="http://www.w3.org/1999/xlink" width="50" zoomAndPan="magnify" viewBox="0 0 37.5 37.499999" height="50" preserveAspectRatio="xMidYMid meet" version="1.0"><defs><clipPath id="f9b9ed4ee6"><path d="M 4 4 L 20.722656 4 L 20.722656 20.722656 L 4 20.722656 Z M 4 4 " clip-rule="nonzero"/></clipPath><clipPath id="5dabb6b8c3"><path d="M 15 25 L 25 25 L 25 33 L 15 33 Z M 15 25 " clip-rule="nonzero"/></clipPath><clipPath id="8b92678883"><path d="M 7.449219 28.5 L 16.519531 7.425781 L 36.234375 15.910156 L 27.167969 36.984375 Z M 7.449219 28.5 " clip-rule="nonzero"/></clipPath><clipPath id="bc4cab3f11"><path d="M 7.449219 28.5 L 16.519531 7.425781 L 36.234375 15.910156 L 27.167969 36.984375 Z M 7.449219 28.5 " clip-rule="nonzero"/></clipPath><clipPath id="9409c4b439"><path d="M 7.449219 28.5 L 16.519531 7.425781 L 36.234375 15.910156 L 27.167969 36.984375 Z M 7.449219 28.5 " clip-rule="nonzero"/></clipPath><clipPath id="957fb66fa7"><path d="M 19 11 L 29 11 L 29 20 L 19 20 Z M 19 11 " clip-rule="nonzero"/></clipPath><clipPath id="5b087d3590"><path d="M 7.449219 28.5 L 16.519531 7.425781 L 36.234375 15.910156 L 27.167969 36.984375 Z M 7.449219 28.5 " clip-rule="nonzero"/></clipPath><clipPath id="d2ef9315d8"><path d="M 7.449219 28.5 L 16.519531 7.425781 L 36.234375 15.910156 L 27.167969 36.984375 Z M 7.449219 28.5 " clip-rule="nonzero"/></clipPath><clipPath id="df31b3f3b9"><path d="M 7.449219 28.5 L 16.519531 7.425781 L 36.234375 15.910156 L 27.167969 36.984375 Z M 7.449219 28.5 " clip-rule="nonzero"/></clipPath><clipPath id="9e80a6255e"><path d="M 13 13 L 30 13 L 30 32 L 13 32 Z M 13 13 " clip-rule="nonzero"/></clipPath><clipPath id="7ad2c21676"><path d="M 7.449219 28.5 L 16.519531 7.425781 L 36.234375 15.910156 L 27.167969 36.984375 Z M 7.449219 28.5 " clip-rule="nonzero"/></clipPath><clipPath id="9edb565f6c"><path d="M 7.449219 28.5 L 16.519531 7.425781 L 36.234375 15.910156 L 27.167969 36.984375 Z M 7.449219 28.5 " clip-rule="nonzero"/></clipPath><clipPath id="a2cc0e3182"><path d="M 7.449219 28.5 L 16.519531 7.425781 L 36.234375 15.910156 L 27.167969 36.984375 Z M 7.449219 28.5 " clip-rule="nonzero"/></clipPath><clipPath id="94e9ab4948"><path d="M 5 4.5625 L 19 4.5625 L 19 19 L 5 19 Z M 5 4.5625 " clip-rule="nonzero"/></clipPath></defs><g clip-path="url(#f9b9ed4ee6)"><path fill="#000000" d="M 8.933594 18.976562 C 7.09375 14.925781 5.761719 10.824219 4.332031 6.839844 C 3.738281 5.152344 5.1875 3.703125 6.875 4.296875 C 10.863281 5.726562 14.960938 7.058594 19.011719 8.898438 C 21.019531 9.84375 20.9375 12.585938 19.007812 12.949219 C 17.734375 13.21875 16.472656 13.542969 15.214844 13.898438 C 14.589844 14.074219 14.113281 14.554688 13.933594 15.179688 C 13.578125 16.4375 13.253906 17.695312 12.984375 18.972656 C 12.621094 20.902344 9.882812 20.984375 8.933594 18.976562 Z M 8.933594 18.976562 " fill-opacity="1" fill-rule="nonzero"/></g><g clip-path="url(#5dabb6b8c3)"><g clip-path="url(#8b92678883)"><g clip-path="url(#bc4cab3f11)"><g clip-path="url(#9409c4b439)"><path fill="#000000" d="M 17.359375 28.339844 C 16.9375 27.367188 16.394531 26.460938 15.960938 25.5 C 15.800781 25.140625 15.296875 25.355469 15.402344 25.71875 C 15.695312 26.738281 15.871094 27.785156 16.179688 28.808594 C 16.492188 29.839844 16.941406 30.921875 17.09375 31.992188 C 17.191406 32.660156 17.964844 32.996094 18.515625 32.601562 C 20.082031 31.484375 21.753906 30.550781 23.542969 29.828125 C 24.773438 29.335938 23.984375 27.390625 22.78125 27.925781 C 21.175781 28.636719 19.664062 29.5 18.265625 30.535156 C 17.929688 29.816406 17.664062 29.042969 17.359375 28.339844 Z M 17.359375 28.339844 " fill-opacity="1" fill-rule="nonzero"/></g></g></g></g><g clip-path="url(#957fb66fa7)"><g clip-path="url(#5b087d3590)"><g clip-path="url(#d2ef9315d8)"><g clip-path="url(#df31b3f3b9)"><path fill="#000000" d="M 28.546875 18.199219 C 27.839844 16.402344 27.371094 14.550781 27.105469 12.640625 C 27.011719 11.972656 26.234375 11.640625 25.683594 12.027344 C 24.800781 12.65625 23.707031 13.070312 22.742188 13.554688 C 21.789062 14.03125 20.90625 14.625 19.96875 15.113281 C 19.628906 15.285156 19.820312 15.800781 20.191406 15.667969 C 21.1875 15.324219 22.21875 15.09375 23.214844 14.730469 C 23.933594 14.46875 24.679688 14.128906 25.429688 13.878906 C 25.640625 15.609375 26.054688 17.300781 26.640625 18.953125 C 27.082031 20.195312 29.035156 19.429688 28.546875 18.199219 Z M 28.546875 18.199219 " fill-opacity="1" fill-rule="nonzero"/></g></g></g></g><g clip-path="url(#9e80a6255e)"><g clip-path="url(#7ad2c21676)"><g clip-path="url(#9edb565f6c)"><g clip-path="url(#a2cc0e3182)"><path fill="#000000" d="M 28.984375 29.367188 C 28.949219 29.34375 25.589844 25.738281 24.398438 24.453125 C 21.703125 21.554688 19.007812 18.65625 16.3125 15.757812 C 15.691406 15.085938 15.082031 14.425781 14.382812 13.835938 C 14.078125 13.574219 13.6875 13.988281 13.894531 14.300781 C 15.242188 16.332031 17.011719 18.128906 18.59375 19.980469 C 21.15625 22.988281 23.726562 25.988281 26.304688 28.980469 C 26.730469 29.472656 27.859375 30.859375 28.050781 31.003906 C 28.382812 31.261719 28.757812 31.679688 29.320312 31.171875 C 29.832031 30.765625 29.65625 29.890625 28.984375 29.367188 Z M 28.984375 29.367188 " fill-opacity="1" fill-rule="nonzero"/></g></g></g></g><g clip-path="url(#94e9ab4948)"><path fill="#ce8157" d="M 9.09375 17.546875 C 7.527344 14.101562 6.394531 10.621094 5.179688 7.230469 C 4.675781 5.796875 5.910156 4.5625 7.34375 5.066406 C 10.730469 6.285156 14.214844 7.417969 17.660156 8.980469 C 19.367188 9.785156 19.296875 12.113281 17.65625 12.425781 C 16.574219 12.652344 15.5 12.929688 14.429688 13.230469 C 13.898438 13.382812 13.492188 13.789062 13.34375 14.320312 C 13.039062 15.386719 12.765625 16.460938 12.535156 17.546875 C 12.226562 19.183594 9.898438 19.253906 9.09375 17.546875 Z M 9.09375 17.546875 " fill-opacity="1" fill-rule="nonzero"/></g></svg>