<svg xmlns="http://www.w3.org/2000/svg" xmlns:xlink="http://www.w3.org/1999/xlink" width="50" zoomAndPan="magnify" viewBox="0 0 37.5 37.499999" height="50" preserveAspectRatio="xMidYMid meet" version="1.0"><defs><clipPath id="e09a3f4268"><path d="M 6 5.328125 L 30.984375 5.328125 L 30.984375 31.972656 L 6 31.972656 Z M 6 5.328125 " clip-rule="nonzero"/></clipPath></defs><g clip-path="url(#e09a3f4268)"><path fill="#ffffff" d="M 30.8125 9.453125 C 30.683594 9.359375 30.542969 9.339844 30.390625 9.386719 C 26.683594 10.589844 18.863281 5.503906 18.78125 5.453125 C 18.613281 5.339844 18.441406 5.339844 18.269531 5.453125 C 18.191406 5.503906 10.367188 10.589844 6.660156 9.386719 C 6.589844 9.367188 6.515625 9.359375 6.441406 9.371094 C 6.367188 9.382812 6.300781 9.414062 6.242188 9.457031 C 6.179688 9.5 6.132812 9.554688 6.097656 9.621094 C 6.0625 9.6875 6.046875 9.757812 6.046875 9.835938 L 6.046875 13.65625 C 6.039062 14.609375 6.101562 15.558594 6.234375 16.507812 C 6.371094 17.453125 6.574219 18.382812 6.851562 19.296875 C 7.125 20.210938 7.46875 21.101562 7.875 21.964844 C 8.285156 22.828125 8.753906 23.65625 9.289062 24.449219 C 9.820312 25.242188 10.410156 25.988281 11.054688 26.691406 C 11.703125 27.398438 12.398438 28.046875 13.140625 28.648438 C 13.882812 29.246094 14.667969 29.789062 15.492188 30.269531 C 16.316406 30.75 17.175781 31.167969 18.0625 31.519531 C 18.210938 31.59375 18.363281 31.640625 18.527344 31.667969 C 18.632812 31.695312 18.886719 31.546875 18.988281 31.519531 C 19.875 31.167969 20.734375 30.75 21.558594 30.269531 C 22.382812 29.789062 23.167969 29.246094 23.910156 28.648438 C 24.65625 28.046875 25.347656 27.398438 25.996094 26.691406 C 26.640625 25.988281 27.230469 25.242188 27.761719 24.449219 C 28.296875 23.65625 28.765625 22.828125 29.175781 21.964844 C 29.582031 21.101562 29.925781 20.210938 30.199219 19.296875 C 30.476562 18.382812 30.679688 17.453125 30.816406 16.507812 C 30.949219 15.558594 31.011719 14.609375 31.003906 13.65625 L 31.003906 9.835938 C 31.003906 9.675781 30.941406 9.546875 30.8125 9.453125 Z M 30.066406 13.65625 C 30.066406 14.566406 30 15.472656 29.863281 16.375 C 29.726562 17.277344 29.527344 18.164062 29.257812 19.035156 C 28.992188 19.910156 28.660156 20.753906 28.265625 21.578125 C 27.875 22.402344 27.421875 23.191406 26.910156 23.945312 C 26.398438 24.699219 25.832031 25.414062 25.214844 26.082031 C 24.597656 26.753906 23.933594 27.375 23.222656 27.949219 C 22.511719 28.519531 21.765625 29.035156 20.976562 29.496094 C 20.191406 29.957031 19.371094 30.355469 18.527344 30.695312 C 17.679688 30.355469 16.863281 29.957031 16.074219 29.496094 C 15.285156 29.035156 14.539062 28.519531 13.828125 27.949219 C 13.117188 27.375 12.453125 26.753906 11.835938 26.082031 C 11.21875 25.414062 10.652344 24.699219 10.140625 23.945312 C 9.628906 23.191406 9.175781 22.402344 8.785156 21.578125 C 8.390625 20.753906 8.058594 19.90625 7.792969 19.035156 C 7.523438 18.164062 7.324219 17.277344 7.1875 16.375 C 7.050781 15.472656 6.984375 14.566406 6.984375 13.65625 L 6.984375 10.429688 C 10.847656 11.078125 17.15625 7.269531 18.527344 6.402344 C 19.894531 7.269531 26.203125 11.074219 30.066406 10.429688 Z M 30.066406 13.65625 " fill-opacity="1" fill-rule="nonzero"/></g><path fill="#ffffff" d="M 28.089844 11.421875 C 27.960938 11.328125 27.820312 11.304688 27.667969 11.355469 C 25.332031 12.113281 20.460938 9.425781 18.78125 8.324219 C 18.613281 8.210938 18.441406 8.210938 18.269531 8.324219 C 16.589844 9.425781 11.722656 12.113281 9.382812 11.355469 C 9.308594 11.332031 9.238281 11.328125 9.164062 11.339844 C 9.089844 11.351562 9.023438 11.378906 8.960938 11.425781 C 8.902344 11.46875 8.855469 11.523438 8.820312 11.589844 C 8.785156 11.65625 8.769531 11.726562 8.765625 11.800781 L 8.765625 14.757812 C 8.761719 15.5 8.808594 16.242188 8.914062 16.980469 C 9.019531 17.714844 9.179688 18.441406 9.394531 19.152344 C 9.609375 19.863281 9.875 20.558594 10.191406 21.230469 C 10.511719 21.902344 10.878906 22.546875 11.292969 23.164062 C 11.707031 23.78125 12.167969 24.367188 12.671875 24.914062 C 13.171875 25.460938 13.714844 25.96875 14.292969 26.4375 C 14.875 26.902344 15.484375 27.324219 16.128906 27.699219 C 16.769531 28.074219 17.4375 28.402344 18.128906 28.675781 C 18.253906 28.734375 18.386719 28.777344 18.527344 28.796875 C 18.632812 28.8125 18.824219 28.703125 18.921875 28.675781 C 19.613281 28.398438 20.28125 28.074219 20.925781 27.699219 C 21.566406 27.324219 22.179688 26.902344 22.757812 26.4375 C 23.335938 25.96875 23.878906 25.460938 24.378906 24.914062 C 24.882812 24.367188 25.34375 23.78125 25.757812 23.164062 C 26.171875 22.546875 26.539062 21.902344 26.859375 21.230469 C 27.175781 20.558594 27.441406 19.863281 27.65625 19.152344 C 27.871094 18.441406 28.03125 17.714844 28.136719 16.976562 C 28.242188 16.242188 28.289062 15.5 28.285156 14.757812 L 28.285156 11.800781 C 28.285156 11.644531 28.21875 11.515625 28.089844 11.421875 Z M 27.34375 14.757812 C 27.34375 15.457031 27.292969 16.148438 27.191406 16.839844 C 27.085938 17.53125 26.933594 18.210938 26.730469 18.878906 C 26.523438 19.546875 26.273438 20.195312 25.972656 20.824219 C 25.671875 21.457031 25.324219 22.058594 24.933594 22.640625 C 24.542969 23.21875 24.113281 23.765625 23.640625 24.277344 C 23.167969 24.792969 22.660156 25.269531 22.117188 25.710938 C 21.574219 26.148438 21 26.546875 20.398438 26.898438 C 19.796875 27.253906 19.171875 27.5625 18.527344 27.820312 C 17.878906 27.5625 17.253906 27.253906 16.652344 26.898438 C 16.050781 26.546875 15.476562 26.148438 14.933594 25.710938 C 14.390625 25.269531 13.882812 24.792969 13.410156 24.277344 C 12.9375 23.765625 12.507812 23.21875 12.117188 22.640625 C 11.726562 22.058594 11.378906 21.457031 11.078125 20.824219 C 10.777344 20.195312 10.527344 19.546875 10.320312 18.878906 C 10.117188 18.210938 9.964844 17.53125 9.859375 16.839844 C 9.757812 16.148438 9.707031 15.457031 9.707031 14.757812 L 9.707031 12.386719 C 12.691406 12.785156 17.367188 10 18.527344 9.273438 C 19.683594 10 24.359375 12.785156 27.34375 12.386719 Z M 27.34375 14.757812 " fill-opacity="1" fill-rule="nonzero"/><path fill="#ffffff" d="M 22.902344 17.476562 L 22.082031 17.476562 L 22.082031 15.972656 C 21.914062 11.269531 15.136719 11.265625 14.96875 15.972656 L 14.96875 17.476562 L 14.148438 17.476562 C 14.019531 17.476562 13.90625 17.523438 13.816406 17.613281 C 13.722656 17.707031 13.679688 17.816406 13.679688 17.945312 L 13.679688 23.03125 C 13.679688 23.160156 13.722656 23.273438 13.816406 23.363281 C 13.90625 23.453125 14.019531 23.5 14.148438 23.5 L 22.902344 23.5 C 23.03125 23.5 23.144531 23.453125 23.234375 23.363281 C 23.328125 23.273438 23.371094 23.160156 23.371094 23.03125 L 23.371094 17.945312 C 23.371094 17.816406 23.328125 17.707031 23.234375 17.613281 C 23.144531 17.523438 23.03125 17.476562 22.902344 17.476562 Z M 15.910156 15.972656 C 16.019531 12.515625 21.03125 12.515625 21.140625 15.972656 L 21.140625 17.476562 L 15.910156 17.476562 Z M 22.433594 22.5625 L 14.617188 22.5625 L 14.617188 18.417969 L 15.4375 18.417969 C 15.894531 18.414062 22.226562 18.417969 22.433594 18.417969 Z M 22.433594 22.5625 " fill-opacity="1" fill-rule="nonzero"/><path fill="#ffffff" d="M 18.527344 19.25 C 18.210938 19.25 17.996094 19.398438 17.882812 19.691406 C 17.773438 19.984375 17.832031 20.238281 18.070312 20.445312 C 18.0625 20.46875 18.058594 20.488281 18.054688 20.511719 L 18.054688 21.726562 C 18.054688 21.855469 18.101562 21.96875 18.191406 22.058594 C 18.285156 22.152344 18.394531 22.199219 18.527344 22.199219 C 18.65625 22.199219 18.765625 22.152344 18.859375 22.058594 C 18.949219 21.96875 18.996094 21.855469 18.996094 21.726562 L 18.996094 20.511719 C 18.992188 20.488281 18.988281 20.46875 18.980469 20.445312 C 19.21875 20.238281 19.277344 19.984375 19.167969 19.691406 C 19.054688 19.398438 18.839844 19.25 18.527344 19.25 Z M 18.527344 19.25 " fill-opacity="1" fill-rule="nonzero"/></svg>