<svg xmlns="http://www.w3.org/2000/svg" xmlns:xlink="http://www.w3.org/1999/xlink" width="50" zoomAndPan="magnify" viewBox="0 0 37.5 37.499999" height="50" preserveAspectRatio="xMidYMid meet" version="1.0"><defs><clipPath id="3179ff1947"><path d="M 6.308594 5 L 29 5 L 29 33.304688 L 6.308594 33.304688 Z M 6.308594 5 " clip-rule="nonzero"/></clipPath><clipPath id="da89477278"><path d="M 23 3.699219 L 30.734375 3.699219 L 30.734375 11 L 23 11 Z M 23 3.699219 " clip-rule="nonzero"/></clipPath><clipPath id="bb1fa659b0"><path d="M 8 3.699219 L 30.734375 3.699219 L 30.734375 32 L 8 32 Z M 8 3.699219 " clip-rule="nonzero"/></clipPath></defs><g clip-path="url(#3179ff1947)"><path fill="#ffffff" d="M 28.550781 32.023438 C 28.292969 32.667969 27.664062 33.121094 26.929688 33.121094 L 8.03125 33.121094 C 7.066406 33.121094 6.289062 32.339844 6.289062 31.378906 L 6.289062 7.007812 C 6.289062 6.105469 6.960938 5.367188 7.832031 5.273438 C 7.828125 5.332031 7.824219 5.386719 7.824219 5.449219 L 7.824219 29.820312 C 7.824219 31.035156 8.816406 32.023438 10.03125 32.023438 Z M 28.550781 32.023438 " fill-opacity="1" fill-rule="nonzero"/></g><g clip-path="url(#da89477278)"><path fill="#ffffff" d="M 30.671875 10.355469 L 25.613281 10.355469 C 24.648438 10.355469 23.867188 9.574219 23.867188 8.613281 L 23.867188 3.703125 Z M 30.671875 10.355469 " fill-opacity="1" fill-rule="nonzero"/></g><path fill="#ffffff" d="M 15.003906 9.046875 C 14.925781 9.15625 14.890625 9.285156 14.890625 9.433594 C 14.890625 9.601562 14.953125 9.738281 15.089844 9.847656 C 15.230469 9.960938 15.398438 10.015625 15.609375 10.015625 C 15.855469 10.015625 16.078125 9.949219 16.28125 9.8125 L 15.21875 8.8125 C 15.136719 8.878906 15.066406 8.957031 15.003906 9.046875 Z M 15.003906 9.046875 " fill-opacity="1" fill-rule="nonzero"/><path fill="#ffffff" d="M 14.070312 18.9375 L 11.339844 18.9375 C 11.042969 18.9375 10.800781 19.183594 10.800781 19.480469 L 10.800781 22.214844 C 10.800781 22.511719 11.042969 22.753906 11.339844 22.753906 L 14.070312 22.753906 C 14.371094 22.753906 14.613281 22.511719 14.613281 22.214844 L 14.613281 19.480469 C 14.613281 19.183594 14.371094 18.9375 14.070312 18.9375 Z M 13.617188 20.453125 L 12.503906 21.566406 C 12.460938 21.609375 12.402344 21.632812 12.339844 21.632812 C 12.277344 21.632812 12.21875 21.609375 12.175781 21.566406 L 11.792969 21.183594 C 11.703125 21.09375 11.703125 20.945312 11.792969 20.855469 C 11.882812 20.765625 12.03125 20.765625 12.121094 20.855469 L 12.339844 21.078125 L 13.289062 20.125 C 13.382812 20.035156 13.527344 20.035156 13.617188 20.125 C 13.707031 20.214844 13.707031 20.363281 13.617188 20.453125 Z M 13.617188 20.453125 " fill-opacity="1" fill-rule="nonzero"/><path fill="#ffffff" d="M 14.070312 13.128906 L 11.339844 13.128906 C 11.042969 13.128906 10.800781 13.371094 10.800781 13.671875 L 10.800781 16.402344 C 10.800781 16.703125 11.042969 16.945312 11.339844 16.945312 L 14.070312 16.945312 C 14.371094 16.945312 14.613281 16.703125 14.613281 16.402344 L 14.613281 13.671875 C 14.613281 13.371094 14.371094 13.128906 14.070312 13.128906 Z M 13.617188 14.644531 L 12.503906 15.757812 C 12.460938 15.800781 12.402344 15.824219 12.339844 15.824219 C 12.277344 15.824219 12.21875 15.800781 12.175781 15.757812 L 11.792969 15.375 C 11.703125 15.28125 11.703125 15.136719 11.792969 15.046875 C 11.882812 14.957031 12.03125 14.957031 12.121094 15.046875 L 12.339844 15.265625 L 13.289062 14.316406 C 13.382812 14.226562 13.527344 14.226562 13.617188 14.316406 C 13.707031 14.40625 13.707031 14.554688 13.617188 14.644531 Z M 13.617188 14.644531 " fill-opacity="1" fill-rule="nonzero"/><g clip-path="url(#bb1fa659b0)"><path fill="#ffffff" d="M 25.613281 10.816406 C 24.398438 10.816406 23.40625 9.828125 23.40625 8.613281 L 23.40625 3.703125 L 10.03125 3.703125 C 9.066406 3.703125 8.285156 4.484375 8.285156 5.445312 L 8.285156 29.816406 C 8.285156 30.78125 9.066406 31.5625 10.03125 31.5625 L 28.925781 31.5625 C 29.890625 31.5625 30.671875 30.78125 30.671875 29.816406 L 30.671875 10.816406 Z M 18.5 7.460938 C 18.679688 7.144531 18.925781 6.894531 19.238281 6.726562 C 19.546875 6.554688 19.898438 6.472656 20.285156 6.472656 C 20.546875 6.472656 20.78125 6.503906 20.992188 6.5625 C 21.195312 6.625 21.402344 6.714844 21.605469 6.828125 C 21.722656 6.894531 21.785156 7 21.785156 7.140625 C 21.785156 7.222656 21.753906 7.300781 21.691406 7.367188 C 21.59375 7.46875 21.421875 7.496094 21.296875 7.429688 C 21.140625 7.347656 20.988281 7.285156 20.839844 7.246094 C 20.695312 7.203125 20.527344 7.183594 20.335938 7.183594 C 20.039062 7.183594 19.789062 7.242188 19.582031 7.363281 C 19.378906 7.480469 19.226562 7.648438 19.125 7.851562 C 19.019531 8.0625 18.96875 8.304688 18.96875 8.574219 C 18.96875 8.839844 19.019531 9.082031 19.125 9.292969 C 19.226562 9.5 19.378906 9.664062 19.582031 9.78125 C 19.789062 9.902344 20.039062 9.960938 20.335938 9.960938 C 20.527344 9.960938 20.695312 9.941406 20.839844 9.898438 C 20.988281 9.859375 21.140625 9.796875 21.292969 9.714844 C 21.421875 9.648438 21.589844 9.675781 21.6875 9.773438 C 21.75 9.835938 21.785156 9.917969 21.785156 10.003906 C 21.785156 10.144531 21.722656 10.25 21.601562 10.316406 C 21.402344 10.429688 21.195312 10.519531 20.992188 10.582031 C 20.78125 10.644531 20.546875 10.675781 20.285156 10.675781 C 19.898438 10.675781 19.546875 10.589844 19.238281 10.417969 C 18.925781 10.25 18.679688 10 18.5 9.683594 C 18.324219 9.367188 18.234375 8.992188 18.234375 8.574219 C 18.234375 8.152344 18.324219 7.777344 18.5 7.460938 Z M 23.042969 15.265625 L 16.796875 15.265625 C 16.671875 15.265625 16.566406 15.164062 16.566406 15.035156 C 16.566406 14.910156 16.671875 14.804688 16.796875 14.804688 L 23.042969 14.804688 C 23.171875 14.804688 23.273438 14.910156 23.273438 15.035156 C 23.273438 15.164062 23.171875 15.265625 23.042969 15.265625 Z M 24.566406 16.304688 C 24.695312 16.304688 24.796875 16.410156 24.796875 16.535156 C 24.796875 16.664062 24.695312 16.765625 24.566406 16.765625 L 21.046875 16.765625 C 20.917969 16.765625 20.816406 16.664062 20.816406 16.535156 C 20.816406 16.410156 20.917969 16.304688 21.046875 16.304688 Z M 23.042969 21.078125 L 16.796875 21.078125 C 16.671875 21.078125 16.566406 20.972656 16.566406 20.847656 C 16.566406 20.71875 16.671875 20.617188 16.796875 20.617188 L 23.042969 20.617188 C 23.171875 20.617188 23.273438 20.71875 23.273438 20.847656 C 23.273438 20.972656 23.171875 21.078125 23.042969 21.078125 Z M 24.566406 22.113281 C 24.695312 22.113281 24.796875 22.21875 24.796875 22.34375 C 24.796875 22.472656 24.695312 22.574219 24.566406 22.574219 L 21.046875 22.574219 C 20.917969 22.574219 20.816406 22.472656 20.816406 22.34375 C 20.816406 22.21875 20.917969 22.113281 21.046875 22.113281 Z M 16.796875 26.425781 L 23.042969 26.425781 C 23.171875 26.425781 23.273438 26.527344 23.273438 26.65625 C 23.273438 26.78125 23.171875 26.886719 23.042969 26.886719 L 16.796875 26.886719 C 16.671875 26.886719 16.566406 26.78125 16.566406 26.65625 C 16.566406 26.527344 16.671875 26.425781 16.796875 26.425781 Z M 16.566406 25.15625 C 16.566406 25.027344 16.671875 24.925781 16.796875 24.925781 L 18.574219 24.925781 C 18.699219 24.925781 18.804688 25.027344 18.804688 25.15625 C 18.804688 25.285156 18.699219 25.386719 18.574219 25.386719 L 16.796875 25.386719 C 16.671875 25.386719 16.566406 25.285156 16.566406 25.15625 Z M 16.796875 22.574219 C 16.671875 22.574219 16.566406 22.472656 16.566406 22.34375 C 16.566406 22.21875 16.671875 22.113281 16.796875 22.113281 L 19.652344 22.113281 C 19.777344 22.113281 19.882812 22.21875 19.882812 22.34375 C 19.882812 22.472656 19.777344 22.574219 19.652344 22.574219 Z M 16.566406 19.347656 C 16.566406 19.21875 16.671875 19.117188 16.796875 19.117188 L 18.574219 19.117188 C 18.699219 19.117188 18.804688 19.21875 18.804688 19.347656 C 18.804688 19.472656 18.699219 19.578125 18.574219 19.578125 L 16.796875 19.578125 C 16.671875 19.578125 16.566406 19.472656 16.566406 19.347656 Z M 16.796875 16.765625 C 16.671875 16.765625 16.566406 16.664062 16.566406 16.535156 C 16.566406 16.410156 16.671875 16.304688 16.796875 16.304688 L 19.652344 16.304688 C 19.777344 16.304688 19.882812 16.410156 19.882812 16.535156 C 19.882812 16.664062 19.777344 16.765625 19.652344 16.765625 Z M 16.566406 13.539062 C 16.566406 13.410156 16.671875 13.308594 16.796875 13.308594 L 18.574219 13.308594 C 18.699219 13.308594 18.804688 13.410156 18.804688 13.539062 C 18.804688 13.664062 18.699219 13.769531 18.574219 13.769531 L 16.796875 13.769531 C 16.671875 13.769531 16.566406 13.664062 16.566406 13.539062 Z M 10.136719 6.878906 C 10.136719 6.785156 10.171875 6.699219 10.234375 6.632812 C 10.300781 6.5625 10.386719 6.527344 10.484375 6.527344 L 13.242188 6.527344 C 13.335938 6.527344 13.421875 6.5625 13.492188 6.628906 C 13.558594 6.695312 13.59375 6.78125 13.59375 6.878906 C 13.59375 6.976562 13.558594 7.0625 13.488281 7.128906 C 13.421875 7.191406 13.335938 7.226562 13.242188 7.226562 L 12.230469 7.226562 L 12.230469 10.28125 C 12.230469 10.382812 12.195312 10.472656 12.121094 10.542969 C 12.050781 10.609375 11.960938 10.644531 11.863281 10.644531 C 11.761719 10.644531 11.671875 10.609375 11.605469 10.539062 C 11.535156 10.472656 11.5 10.382812 11.5 10.28125 L 11.5 7.226562 L 10.484375 7.226562 C 10.386719 7.226562 10.304688 7.191406 10.238281 7.125 C 10.171875 7.0625 10.136719 6.976562 10.136719 6.878906 Z M 15.074219 28.023438 C 15.074219 28.574219 14.625 29.023438 14.070312 29.023438 L 11.339844 29.023438 C 10.789062 29.023438 10.339844 28.574219 10.339844 28.023438 L 10.339844 25.292969 C 10.339844 24.738281 10.789062 24.285156 11.339844 24.285156 L 14.070312 24.285156 C 14.625 24.285156 15.074219 24.738281 15.074219 25.292969 Z M 15.074219 22.214844 C 15.074219 22.765625 14.625 23.214844 14.070312 23.214844 L 11.339844 23.214844 C 10.789062 23.214844 10.339844 22.765625 10.339844 22.214844 L 10.339844 19.480469 C 10.339844 18.925781 10.789062 18.476562 11.339844 18.476562 L 14.070312 18.476562 C 14.625 18.476562 15.074219 18.925781 15.074219 19.480469 Z M 15.074219 16.402344 C 15.074219 16.957031 14.625 17.40625 14.070312 17.40625 L 11.339844 17.40625 C 10.789062 17.40625 10.339844 16.957031 10.339844 16.402344 L 10.339844 13.671875 C 10.339844 13.117188 10.789062 12.667969 11.339844 12.667969 L 14.070312 12.667969 C 14.625 12.667969 15.074219 13.117188 15.074219 13.671875 Z M 15.65625 10.671875 C 15.328125 10.671875 15.050781 10.613281 14.832031 10.496094 C 14.609375 10.378906 14.441406 10.21875 14.339844 10.027344 C 14.234375 9.835938 14.183594 9.632812 14.183594 9.417969 C 14.183594 9.144531 14.257812 8.902344 14.402344 8.707031 C 14.511719 8.554688 14.632812 8.429688 14.757812 8.332031 C 14.679688 8.226562 14.617188 8.121094 14.570312 8.023438 C 14.503906 7.886719 14.472656 7.726562 14.472656 7.554688 C 14.472656 7.355469 14.519531 7.175781 14.609375 7.011719 C 14.703125 6.84375 14.839844 6.710938 15.015625 6.613281 C 15.390625 6.40625 15.9375 6.410156 16.421875 6.734375 C 16.457031 6.753906 16.492188 6.789062 16.523438 6.835938 C 16.554688 6.886719 16.574219 6.9375 16.574219 6.996094 C 16.574219 7.074219 16.542969 7.148438 16.484375 7.210938 C 16.394531 7.304688 16.261719 7.339844 16.113281 7.265625 C 15.78125 7.085938 15.453125 7.09375 15.289062 7.253906 C 15.207031 7.332031 15.167969 7.421875 15.167969 7.527344 C 15.167969 7.617188 15.179688 7.695312 15.210938 7.761719 C 15.238281 7.832031 15.285156 7.902344 15.347656 7.96875 C 15.414062 8.042969 15.527344 8.15625 15.683594 8.300781 L 16.738281 9.292969 C 16.769531 9.234375 16.800781 9.167969 16.839844 9.085938 C 16.867188 9.027344 16.910156 8.976562 16.964844 8.941406 C 17.105469 8.847656 17.289062 8.867188 17.40625 8.976562 C 17.472656 9.042969 17.507812 9.125 17.507812 9.222656 C 17.507812 9.277344 17.492188 9.332031 17.46875 9.386719 C 17.40625 9.519531 17.332031 9.648438 17.25 9.773438 L 17.550781 10.058594 C 17.585938 10.089844 17.613281 10.125 17.636719 10.164062 C 17.660156 10.207031 17.671875 10.257812 17.671875 10.320312 C 17.671875 10.410156 17.640625 10.492188 17.582031 10.558594 C 17.460938 10.691406 17.222656 10.695312 17.082031 10.566406 L 16.78125 10.277344 C 16.636719 10.390625 16.476562 10.480469 16.304688 10.546875 C 16.101562 10.632812 15.882812 10.671875 15.65625 10.671875 Z M 19.652344 28.386719 L 16.796875 28.386719 C 16.671875 28.386719 16.566406 28.28125 16.566406 28.152344 C 16.566406 28.027344 16.671875 27.921875 16.796875 27.921875 L 19.652344 27.921875 C 19.777344 27.921875 19.882812 28.027344 19.882812 28.152344 C 19.882812 28.28125 19.777344 28.386719 19.652344 28.386719 Z M 24.566406 28.386719 L 21.046875 28.386719 C 20.917969 28.386719 20.816406 28.28125 20.816406 28.152344 C 20.816406 28.027344 20.917969 27.921875 21.046875 27.921875 L 24.566406 27.921875 C 24.695312 27.921875 24.796875 28.027344 24.796875 28.152344 C 24.796875 28.28125 24.695312 28.386719 24.566406 28.386719 Z M 28.386719 26.886719 L 24.757812 26.886719 C 24.628906 26.886719 24.527344 26.78125 24.527344 26.65625 C 24.527344 26.527344 24.628906 26.425781 24.757812 26.425781 L 28.386719 26.425781 C 28.515625 26.425781 28.617188 26.527344 28.617188 26.65625 C 28.617188 26.78125 28.515625 26.886719 28.386719 26.886719 Z M 28.386719 25.386719 L 19.96875 25.386719 C 19.839844 25.386719 19.738281 25.285156 19.738281 25.15625 C 19.738281 25.027344 19.839844 24.925781 19.96875 24.925781 L 28.386719 24.925781 C 28.515625 24.925781 28.617188 25.027344 28.617188 25.15625 C 28.617188 25.285156 28.515625 25.386719 28.386719 25.386719 Z M 28.386719 21.078125 L 24.757812 21.078125 C 24.628906 21.078125 24.527344 20.972656 24.527344 20.847656 C 24.527344 20.71875 24.628906 20.617188 24.757812 20.617188 L 28.386719 20.617188 C 28.515625 20.617188 28.617188 20.71875 28.617188 20.847656 C 28.617188 20.972656 28.515625 21.078125 28.386719 21.078125 Z M 28.386719 19.578125 L 19.96875 19.578125 C 19.839844 19.578125 19.738281 19.472656 19.738281 19.347656 C 19.738281 19.21875 19.839844 19.117188 19.96875 19.117188 L 28.386719 19.117188 C 28.515625 19.117188 28.617188 19.21875 28.617188 19.347656 C 28.617188 19.472656 28.515625 19.578125 28.386719 19.578125 Z M 28.386719 15.265625 L 24.757812 15.265625 C 24.628906 15.265625 24.527344 15.164062 24.527344 15.035156 C 24.527344 14.910156 24.628906 14.804688 24.757812 14.804688 L 28.386719 14.804688 C 28.515625 14.804688 28.617188 14.910156 28.617188 15.035156 C 28.617188 15.164062 28.515625 15.265625 28.386719 15.265625 Z M 28.386719 13.769531 L 19.96875 13.769531 C 19.839844 13.769531 19.738281 13.664062 19.738281 13.539062 C 19.738281 13.410156 19.839844 13.308594 19.96875 13.308594 L 28.386719 13.308594 C 28.515625 13.308594 28.617188 13.410156 28.617188 13.539062 C 28.617188 13.664062 28.515625 13.769531 28.386719 13.769531 Z M 28.386719 13.769531 " fill-opacity="1" fill-rule="nonzero"/></g><path fill="#ffffff" d="M 14.070312 24.746094 L 11.339844 24.746094 C 11.042969 24.746094 10.800781 24.992188 10.800781 25.292969 L 10.800781 28.023438 C 10.800781 28.320312 11.042969 28.5625 11.339844 28.5625 L 14.070312 28.5625 C 14.371094 28.5625 14.613281 28.320312 14.613281 28.023438 L 14.613281 25.292969 C 14.613281 24.992188 14.371094 24.746094 14.070312 24.746094 Z M 13.617188 26.261719 L 12.503906 27.375 C 12.457031 27.417969 12.398438 27.441406 12.339844 27.441406 C 12.28125 27.441406 12.222656 27.417969 12.175781 27.375 L 11.792969 26.992188 C 11.703125 26.902344 11.703125 26.753906 11.792969 26.664062 C 11.882812 26.574219 12.03125 26.574219 12.121094 26.664062 L 12.339844 26.886719 L 13.289062 25.933594 C 13.382812 25.84375 13.527344 25.84375 13.617188 25.933594 C 13.707031 26.027344 13.707031 26.171875 13.617188 26.261719 Z M 13.617188 26.261719 " fill-opacity="1" fill-rule="nonzero"/></svg>